<?xml version="1.0" encoding="utf-8" ?>
<svg baseProfile="full" height="300mm" version="1.1" viewBox="0,0,200,300" width="200mm" xmlns="http://www.w3.org/2000/svg" xmlns:ev="http://www.w3.org/2001/xml-events" xmlns:xlink="http://www.w3.org/1999/xlink"><defs /><rect fill="#222222" height="300" width="200" x="0" y="0" /><text fill="#FFFFFF" style="font-size:12px; font-family:Arial; font-weight:bold;" x="10" y="20">路线图</text><text fill="#FFFFFF" style="font-size:4px; font-family:Arial" x="10" y="280">Runner</text><text fill="#FFFFFF" style="font-size:9px; font-family:Arial" x="10" y="290">苗</text><text fill="#FFFFFF" style="font-size:4px; font-family:Arial" x="65" y="280">SPECIAL TRACKS</text><rect fill="yellow" height="2.6" width="2.6" x="65" y="283" /><text fill="#FFFFFF" style="font-size:3px; font-family:Arial" x="70" y="285.5">Over 20.0 km</text><rect fill="red" height="2.6" width="2.6" x="65" y="287" /><text fill="#FFFFFF" style="font-size:3px; font-family:Arial" x="70" y="289.5">Over 40.0 km</text><text fill="#FFFFFF" style="font-size:4px; font-family:Arial" x="120" y="280">STATISTICS</text><text fill="#FFFFFF" style="font-size:3px; font-family:Arial" x="120" y="285">Number: 4</text><text fill="#FFFFFF" style="font-size:3px; font-family:Arial" x="120" y="290">Weekly: 1.0</text><text fill="#FFFFFF" style="font-size:3px; font-family:Arial" x="141" y="285">Total: 94.2 km</text><text fill="#FFFFFF" style="font-size:3px; font-family:Arial" x="141" y="290">Avg: 23.6 km</text><text fill="#FFFFFF" style="font-size:3px; font-family:Arial" x="167" y="285">Min: 21.0 km</text><text fill="#FFFFFF" style="font-size:3px; font-family:Arial" x="167" y="290">Max: 28.3 km</text><polyline fill="none" points="17.924085904611275,112.03728290246363 16.30562729376834,112.50417226642458 15.138575506338384,113.07777652830555 15.160595351422671,113.73141500420752 14.918377055902965,113.7981125929 14.610099225246813,113.74475452511979 14.5,113.51798245294776 14.53302976762643,112.59754990511283 15.589982329809573,112.2373785830714 17.83600652439054,111.93056505968707 19.11315753706731,111.93056505968707 19.2452766073402,112.27739767622552 19.872842191136442,111.98392399382283 20.0490009515197,111.63709046618897 19.828802501084283,111.4503335053596 20.30222916958155,111.11683815596189 20.181120021792594,110.97009988683567 24.92639662907459,102.81915333310462 25.68608128314372,101.03146851059864 27.381609351665247,98.10974291859748 29.04410765261855,96.66886380305368 29.836822074255906,95.37472504889593 30.001970912097022,94.70763735994115 29.781772461661603,93.58692107279057 31.04791355173802,92.83977063353814 31.53235014277743,92.26606243944116 31.37821122747846,91.53224533740286 30.695596031087916,91.11863720974361 31.290131847257726,90.63831617135293 32.68839200766524,90.19802007143153 33.51413619687082,88.70366884914984 33.371007204055786,87.86308749906311 35.121584885171615,82.40582611993887 35.848239771672525,77.45536565491784 35.694100856315345,72.3445522065158 34.670178061758634,66.3126906759062 35.50693217344815,65.41855957004736 35.694100856315345,64.71125675594521 37.44467853748938,63.950567595340544 37.89608536090236,63.043071990963654 38.61173032486113,62.60266705324466 38.83192877529655,56.316698081980576 38.66677993751364,49.963639355693886 44.193761043890845,46.933797001998755 48.27844229986658,45.305389589273545 56.051447600941174,41.3544006932716 58.2314122604439,41.15417793668894 60.58753568032989,40.35328331747587 67.57883648225106,38.76482531395595 74.57013728423044,37.79038190111896 77.10241946449969,37.17634469431505 78.2584613293875,36.50890911460738 79.50258257443784,36.535606614466815 79.88792986277258,36.97611443967617 79.9760092429351,37.429969167671516 79.74480086995754,38.53790089584072 78.78693761047907,40.086317166853405 78.47865977982292,40.25984523740772 78.37957047711825,40.113013810652774 79.3044039690867,38.36437014700641 79.22733451134991,37.40327188183437 79.38147342670709,37.28313401653577 95.3899007748114,36.2018874071 95.5,36.37542151952948 92.9787277423311,37.30983133109112 92.81357890448999,37.13629867212876 90.87583254044876,38.297627479470975 88.77293733862462,40.126362130162306 87.14346880523954,42.115243891203136 85.22774228628259,44.98504435012728 84.28088894934626,46.74693178461894 82.72848987363977,48.78908468315058 81.67153731139842,51.7788358970065 80.74670381954638,56.076462944824016 79.99802908796119,60.17373587390466 79.70076117984718,64.68456599592173 78.62178877263796,65.01820003704779 78.10432241408853,64.87140118182288 74.504077749094,65.00485469456908 73.458135109453,65.44525015452382 73.24894658150151,71.63729327467445 69.40648362104548,72.69150778024778 69.64870191656519,76.89492233745113 69.09820579044754,77.26855152836652 69.18628517061006,82.01887081060704 70.81575370399514,95.94841727468884 68.97709664265858,96.06849201882142 61.76559739030199,95.8683673735868 61.3141905668308,96.10851690483832 57.04234062798787,96.94903619796241 47.81602555391146,100.29770899590949 44.700217479956336,101.13819676571438 34.438969688722864,104.7802373583545 32.01678673370043,105.42058386961435 29.330365638190415,105.62069140163658 26.632934620138258,110.63660310389969 24.452969960635528,110.78334181103855 23.836414299323224,110.4231646403714 23.307938018231653,111.81050736459292 22.64734266686719,111.75714834762766 21.84361832268769,112.63756886919873 20.99585428845603,112.81098421469505 20.478387929906603,112.63756886919873 20.79767568304669,111.74380858938093 17.571768383844756,111.94390479556023 15.612002174835652,112.30407706363621" stroke="yellow" stroke-linecap="round" stroke-linejoin="round" stroke-width="0.5"><title>2025-01-27 23.9km</title><desc>1737970648000</desc></polyline><polyline fill="none" points="160.94434180139797,108.93203101144172 159.70969976909691,109.03780146923964 158.53741339495173,109.55154243553989 158.56235565821407,110.20127067092108 157.97621247114148,110.68478719294944 157.97621247114148,111.60648544599826 158.2630484988913,111.81802180290106 159.87182448036037,111.86335097625852 161.53048498847056,111.54604642197955 163.7004618938081,108.20674549066462 164.4237875288818,107.4361250702932 164.34896073903656,107.14902998843172 165.6334872979205,104.7162507827743 169.58683602773817,98.0523116979457 169.88614318711916,97.14562619561912 172.46766743651824,92.50631703242834 174.25103926099837,90.96488024618884 175.17390300240368,89.54432383373205 175.41085450351238,88.69802732524113 175.02424942265498,87.53436038199288 176.65796766750282,86.55203579949739 177.2441108545172,85.88707329124736 176.99468822177732,85.04075231633033 176.371131639753,84.7687193719612 176.35866050812183,84.55713778856443 177.0071593533503,84.08863445163297 178.32909930718597,83.74103408041992 178.86535796773387,83.13650942064123 179.41408775985474,81.97279131716641 179.2893764434848,80.9299698954128 180.4491916859406,77.66542986253626 181.5715935335611,73.17654973805475 182.1078521940508,68.2038332313532 181.97066974599147,64.01692637635279 180.67367205547635,55.58223098964663 181.6588914549793,54.66012443783984 182.2450346421101,54.6147747617797 185.15080831415253,53.16357653983869 185.5,44.4862729350134 185.4127020785818,39.95085983016179 185.17575057741487,38.136649023756036 181.58406466519227,40.01133307525015 179.45150115474826,41.387091585900635 178.52863741345936,41.387091585900635 178.5161662818282,41.78016269594082 178.19191685918486,42.052288133098045 175.09907621250022,43.82108919565508 169.73648960742867,49.58085960750759 166.30692840646952,52.30191971453314 161.61778290994698,57.24502908607246 157.9138568129856,60.207778775074985 152.11478060047375,63.41230743390042 149.20900692843134,65.48311530688079 144.48244803695707,66.66210026071349 139.55635103932582,68.83865899166267 130.2404157044366,71.77090805579792 112.13233256351668,78.33043559150246 111.30923787527718,78.51180018350715 105.3729792147642,78.58736868675624 104.8367205542745,81.21712447794562 104.5,81.79143168742303 106.15866050805198,86.92985384933127 106.62009237875463,86.88451574294595 106.96928406466031,87.1112061124295 110.11200923786964,85.93241175510047 107.20623556582723,87.06586807103304 106.94434180139797,87.44368458625104 109.48845265590353,94.74287819150777 110.01224018476205,95.34734739380656 130.0034642032697,87.05075538692472 130.66443418018753,86.9600792445417 135.02933025406674,98.46031805437815 136.42609699774766,98.23364801883872 147.07644341804553,94.9846662189957 147.4256351039512,96.61672331878799 148.71016166283516,99.30654926608258 148.84734411089448,100.45499685840332 148.4482678984059,101.22565979325736 148.7974595843698,101.45232446906448 148.56050808320288,102.02653983068012 148.77251732104924,102.3740899678669 149.14665127021726,102.29853567139071 149.73279445728986,104.61047671291453 156.92863741342444,102.85763639688957 157.10323325637728,103.56784186451114 157.0034642032697,104.65580846792727 157.36512702086475,105.38111434031453 157.32771362591302,108.26718610945682 157.9138568129856,108.22185564808024 157.60207852197345,108.32762669945078 157.7267898383434,108.8111503799737 158.8491916859639,108.8111503799737 159.1859122402384,109.27956218372856 159.49769053125056,109.27956218372856 159.70969976909691,109.53643243687111 160.74480369518278,109.40044236779795" stroke="yellow" stroke-linecap="round" stroke-linejoin="round" stroke-width="0.5"><title>2025-01-21 21.0km</title><desc>1737463377000</desc></polyline><polyline fill="none" points="48.69743793818634,223.59449805874465 48.51906354021048,220.55856750149542 47.576227436598856,218.71637445867964 47.44881715235533,218.18120485330292 47.61020351242041,217.58428098848526 48.102856611600146,216.91530967540893 48.391653255937854,216.16399724093935 48.28972502853139,213.92031290318118 48.60400372973527,212.56172335063457 48.28972502853139,210.41057942065527 48.544545597047545,209.14457009239413 48.595509710750775,207.87854216341657 48.30671306641307,205.8405069107539 48.60400372973527,204.17298766524618 48.34918316119001,201.1363728084907 48.63797980552772,199.3349405332483 48.7229199950234,196.9878751144497 48.587015691795386,193.85835507660522 48.2812310095469,192.40679567062762 48.52755755916587,191.38760104440007 48.264242971665226,188.29905883087486 48.595509710750775,184.9839002759909 48.425629331730306,184.76768985039962 48.6549678434385,184.61325349980325 49.275031226861756,184.57207042620576 52.7830610536912,184.5 52.774567034764914,189.1844522563115 53.05486966014723,193.6112828626865 52.918965356919216,196.8643435841368 53.19926798233064,200.03493012065883 53.12282181176124,202.29956334946473 53.29270219078171,203.41127060505823 53.21625602021231,209.69008858760935 53.445594531920506,211.66627761677228 53.946741650026524,213.93060516654805 53.79384930894594,215.1965441852517 53.85330744157545,215.9066969564301 54.235538294393336,216.73005516294506 55.06795215161401,217.89303522779664 55.178374397946754,218.6340408895412 54.94903588629677,219.37504018056643 54.210056237498065,220.13661614686862 53.95523566901102,220.58944190975308 53.819331365783,221.6185825236389 53.40312443714356,222.64771085009124 53.182279944448965,224.76767647782253 53.19926798233064,225.8173488979519 53.40312443714356,226.88758997068362 53.19077396337525,228.040142420723 53.32667826660327,228.48263614279858 53.14830386862741,228.87367521609121 53.25872611498926,229.6660384262941 53.07185769802891,232.54729780409252 53.233244058152195,233.50426622469968 52.94444741381449,235.0271618105471 52.884989281126764,236.45742438776506 53.13980984967202,237.38348102916643 53.063363679131726,238.65936500011594 53.36914836135111,240.20274779968167 53.36914836135111,242.05477069834888 53.91276557423407,244.4623410078857 53.98071772584808,246.20109998953558 54.244032313348725,247.01388062688056 54.20156221857178,247.9192475089876 55.03397607579245,249.61678479872353 55.40771290965495,251.14968370654242 56.69030977130751,253.36153680323332 57.52272362849908,254.0508003638024 58.29567935306113,255.14126579299045 60.13038744655205,256.94153232942335 61.96509554001386,258.02167421926424 62.55118284764467,258.8343434881099 59.5018300441734,262.4861172389137 57.887966443406185,264.0599326328447 55.849401895102346,265.5 55.6625334781711,265.47942777822027 55.55211123183835,265.3559943447908 55.60307534554158,265.06798231332505 55.27180860642693,264.87254503026634 53.38613639923278,261.5294703245672 51.143715396145126,255.36758707927947 49.69123815547209,252.58996658294927 49.93756470506196,251.7463752444528 49.30051328369882,247.80607716843951 48.850330279325135,242.6412363247291 48.544545597047545,242.2708374457361 48.7993661655928,241.26252132636 48.92677644986543,237.46579669375933 48.6549678434385,236.60147829632479 48.97774056356866,234.88310527183785 48.61249774866155,232.06366456189426 48.71442597609712,231.0037779693157 48.5785216728691,221.12459656247665 48.80786018454819,221.05255670661427 49.15611496154452,221.59799983178527 49.232561132113915,222.7609142158908 49.444911605882226,223.5018780298342 49.946058723988244,224.1193430094354 50.38774770946475,224.40749181959836 51.28811371829943,224.60302082081034 52.502758428337984,224.36632776282204 52.715108902106294,224.5412748683375 52.91047133799293,225.09698684832256 53.12282181176124,225.1896051633521 53.394630418217275,223.35780223152688 53.267220133915544,223.13139691903052 52.68962684524013,224.057596710496 51.58540438162163,224.60302082081034 51.07576324453112,224.62360279514542 50.413229766330915,224.4280738406087 49.181597018410685,223.48129578767112 48.74840205188957,223.63566248409188 48.62948578657233,224.02672354446258" stroke="yellow" stroke-linecap="round" stroke-linejoin="round" stroke-width="0.5"><title>2025-01-01 21.0km</title><desc>1735699611000</desc></polyline><polyline fill="none" points="137.76685174340673,265.36789639626295 137.7071421957662,265.5 137.62089507142082,265.48799060273086 137.62089507142082,265.3999215595177 137.55455112959316,265.3839089816647 137.62752946560795,265.3959184157611 137.66733583068708,265.31985859473934 137.5777715092263,265.33186805150035 137.70050780159363,265.2998428240462 137.77016894050757,265.18775429010566 137.80002371431328,265.31985859473934 137.88958803577407,265.0436399170321 137.9128084154072,264.6873545358685 137.2228314205131,264.6313093041317 137.1365842961386,264.76741899215995 137.2261486175994,264.9515665250947 137.1067295223329,264.7754254273932 136.9242836823396,264.90753133633916 136.86125693761278,265.0436399170321 136.33382260016515,264.9555697212454 136.10493600090558,264.97558569487956 136.49968245471246,264.9795888882036 136.34709138852486,264.8674992969936 136.55607480525214,264.8474832596403 136.40016654197825,264.74740289578403 136.48973086343904,264.6713416219536 136.55275760816585,264.4911958200246 137.05033717179322,264.52322181023555 136.11820478925074,264.43915352151816 135.8992697812646,264.4992023204104 135.4249105972849,264.8034479358794 135.48793734199717,264.8394768413782 135.40500741473807,264.89552172948606 135.46139976527775,264.9315505372906 135.19934119509708,264.9715825011008 135.11309407073713,265.21977962327946 135.20265839219792,265.1957606262331 135.12968005618313,265.22778595185446 135.15290043583082,264.9956016567303 134.9737717929238,265.0076112281822 134.910745048197,264.90753133633916 134.8576698947436,264.9875952734146 134.81122913546278,264.89952493224337 134.71503041984397,264.88751532256356 134.6387348867429,264.7153771170524 134.69844443438342,264.45916979962203 134.95055141329067,264.35108175770074 135.0434329318232,264.12689805521586 135.19934119509708,264.11088487696543 135.31544309326273,263.5304020659314 135.6272596198105,262.6616609720404 135.92580735799856,262.69769215055203 135.99878569398425,262.4614870616715 136.25752706707863,259.26254781417447 136.17127994271868,258.08138639869867 136.16464554853155,256.97225842484477 138.34736123430775,256.59186322640016 138.36063002266746,256.0352773045597 138.45019434412825,255.9712092743939 138.6823981404741,250.12849721273597 138.67576374630153,248.6706657861905 138.74210768812918,247.13667110736424 138.79518284158257,246.90836831757406 138.7520592794026,246.34361270780573 138.84494079793512,245.22608984640465 139.05724141176324,244.42497552586065 139.07714459429553,243.86818992444387 138.9875802728493,243.78407044145206 138.98094587866217,243.26332613993873 139.08046179138182,241.94140083718594 139.15344012738205,241.80920547196365 139.16339171865548,240.87981744401986 139.24963884301542,240.52728428529372 139.21314967502258,240.0866126812689 139.3425203615625,239.30941425467972 139.46193945684354,237.4905400370517 139.42213309174986,237.1820428781357 139.49842862483638,236.82947125803184 139.6609712822974,233.9967456881095 139.85005151646328,233.48787173343953 139.80692795426876,233.39170571808427 139.94293303501036,232.21765694081114 139.96947061172978,231.19183358042937 140.4471469928103,224.7637019005124 140.6627648037247,223.41700603446589 140.7821838989912,223.11238882796533 140.79876988445176,222.53922007607252 141.0575112575316,221.27661132539652 141.24327429461118,220.0019299674277 141.2532258858846,217.69295096042697 141.29634944807913,217.28004401682847 141.2499086887983,215.35976010512604 141.56504241241782,208.29506395413773 141.56835960951867,205.05491417650774 141.51860165315156,204.94262619395158 141.49538127353298,204.17665179621326 141.54513922988554,204.13654794666945 141.49869847061927,198.67395921809657 141.4588921055256,198.48142897782236 140.58978646772448,198.5014842623532 140.5466629055445,198.45736262070204 143.6018014262081,194.38589058173966 145.0713197374571,191.60978805601917 145.2537655774504,191.3570390722016 145.4727005854511,190.8595593595128 145.71485597308492,190.54261281991785 146.7995794217859,188.37606318388862 147.28057299996726,187.5615650746222 147.51609399341396,187.34088486613837 147.6355130886659,187.09612876706888 147.62556149739248,186.96371899074438 147.75824938103324,186.55043665407356 148.12977545520698,186.36184983020212 150.62430766753096,186.38993729622598 151.80522983187984,186.293637315488 152.7240934260335,186.30567482809056 152.96293161658105,186.35382483560898 153.15532904784777,186.2615372609107 153.73583853873424,186.29764982016422 153.97467672928178,186.54241170428577 155.3081899598037,186.54241170428577 155.2982383685303,185.38679903256343 155.33141033943684,184.5 155.3612651132571,184.67655912964983 155.35794791617082,184.7808890906599 155.30487276270287,184.70866069044132" stroke="yellow" stroke-linecap="round" stroke-linejoin="round" stroke-width="0.5"><title>2024-06-02 28.3km</title><desc>1717296598000</desc></polyline></svg>