<?xml version="1.0" encoding="utf-8" ?>
<svg baseProfile="full" height="200mm" version="1.1" viewBox="0,0,200,200" width="200mm" xmlns="http://www.w3.org/2000/svg" xmlns:ev="http://www.w3.org/2001/xml-events" xmlns:xlink="http://www.w3.org/1999/xlink"><defs /><rect fill="#1a1a1a" height="200" width="200" x="0" y="0" /><text alignment-baseline="middle" fill="#e1ed5e" style="dominant-baseline: central; font-size:9.0px; font-family:Arial;" text-anchor="middle" x="100.0" y="100.0">2024</text><line stroke="#e1ed5e" stroke-width="0.3" x1="100.0" x2="100.0" y1="15.0" y2="10.0" /><path d="M 100.0 14.0 a86.0,86.0 0 0,1 42.35913384403234,11.155469271406648" fill="none" id="id49" stroke="none" /><text fill="#e1ed5e" style="font-size:6.75px; font-family:Arial;" text-anchor="middle"><textPath startOffset="22.145653131862478" xlink:href="#id49">January</textPath></text><line stroke="#e1ed5e" stroke-width="0.3" x1="143.13028292997686" x2="145.6673583964461" y1="26.7553504044142" y2="22.446841604673864" /><path d="M 143.63769802327073 25.89364864446614 a86.0,86.0 0 0,1 29.32050498858742,28.57503671076993" fill="none" id="id50" stroke="none" /><text fill="#e1ed5e" style="font-size:6.75px; font-family:Arial;" text-anchor="middle"><textPath startOffset="20.669276256404974" xlink:href="#id50">February</textPath></text><line stroke="#e1ed5e" stroke-width="0.3" x1="172.87174338648825" x2="177.1583165268699" y1="56.24261187166439" y2="53.66864786411523" /><path d="M 173.72905801456457 55.72781907015455 a86.0,86.0 0 0,1 12.242430191666344,42.057860355516425" fill="none" id="id51" stroke="none" /><text fill="#e1ed5e" style="font-size:6.75px; font-family:Arial;" text-anchor="middle"><textPath startOffset="22.145653131862474" xlink:href="#id51">March</textPath></text><path d="M 120.16314734710363 94.1308016681162 l 14.082891183529727 -4.099324377270241 a35.66738846684103,35.66738846684103 0 0,0 0.16607671562139892,0.5893476749079474 l -14.151186391225707 3.8569687784592808" fill="#ffaf10" stroke="none" /><path d="M 120.77682067341334 96.94652285012252 l 4.056683292661738 -0.5961927444598464 a25.100259153456943,25.100259153456943 0 0,0 0.05899216310039615,0.4268379052812998 l -4.066319972317347 0.526466530978461" fill="#ff1b02" stroke="none" /><path d="M 120.82617615685814 97.30363454192243 l 5.347428285846051 -0.6923316508467227 a26.39206012457489,26.39206012457489 0 0,0 0.054314751328268955,0.44980405702870524 l -5.358525123433983 0.6004339168946045" fill="#ff2e04" stroke="none" /><path d="M 120.86939407059847 97.66154086499901 l 7.9859239233097 -0.8948394326501369 a29.035901848524272,29.035901848524272 0 0,0 0.051251972079141166,0.49581633782464174 l -8.000108287870507 0.7576185725425638" fill="#ff5407" stroke="none" /><path d="M 120.9064616781168 98.02013634271609 l 2.845006470647001 -0.26942507071234617 a23.857735412306685,23.857735412306685 0 0,0 0.03511219867762957,0.40805697225623305 l -2.8492122920223713 0.22054705108045114" fill="#ff0901" stroke="none" /><path d="M 120.93736805541906 98.37931529534042 l 11.42433713626139 -0.8843159469043707 a32.45851184477768,32.45851184477768 0 0,0 0.038233095691265866,0.5559008203399394 l -11.437834193117721 0.6880717024100971" fill="#ff830c" stroke="none" /><path d="M 120.96210409425399 98.7389718711861 l 27.16592958842312 -1.6342348650854182 a48.21504095160291,48.21504095160291 0 0,0 0.04260926306419085,0.8266083202891945 l -27.18998044094388 1.167654751419493" fill="#b4ff20" stroke="none" /><path d="M 120.98066250479742 99.09900007780936 l 15.212980893786263 -0.653310857007253 a36.22700242170433,36.22700242170433 0 0,0 0.021348594958787225,0.6215410488647869 l -15.221954175741898 0.3920635435783462" fill="#ffb610" stroke="none" /><path d="M 120.99303781780057 99.45929381324524 l 5.573893066434218 -0.14356371343145657 a26.575741605908373,26.575741605908373 0 0,0 0.00783170451163529,0.45615752486947 l -5.575536202544519 0.047859272592920214" fill="#ff3104" stroke="none" /><line stroke="#e1ed5e" stroke-width="0.3" x1="184.99686870605535" x2="189.99668451229388" y1="99.2704041080226" y2="99.22748670261217" /><path d="M 185.99683186730306 99.26182062694052 a86.0,86.0 0 0,1 -10.086455211305974,41.156179273409016" fill="none" id="id52" stroke="none" /><text fill="#e1ed5e" style="font-size:6.75px; font-family:Arial;" text-anchor="middle"><textPath startOffset="21.40746469413373" xlink:href="#id52">April</textPath></text><path d="M 120.99922638620191 99.81974689727618 l 2.8234810700979054 -0.024236189181786008 a23.823585087449512,23.823585087449512 0 0,0 0.0,0.4089785838112254 l -2.8234810700979054 -0.024236189181785665" fill="#ff0801" stroke="none" /><path d="M 120.99922638620191 100.18025310272382 l 7.157629420397357 0.061439640082251355 a28.15789310824849,28.15789310824849 0 0,0 -0.008297954644656217,0.48331425765149566 l -7.155520034154033 -0.18430081370281806" fill="#ff4706" stroke="none" /><path d="M 120.99303781780057 100.54070618675476 l 22.140142719671214 0.5702515399657241 a43.14748533053456,43.14748533053456 0 0,0 -0.025426839822112825,0.7402746983049301 l -22.127091192852255 -0.9502325028347649" fill="#f0ff19" stroke="none" /><path d="M 120.98066250479742 100.90099992219065 l 5.645230755144752 0.2424304985588806 a26.65043386170157,26.65043386170157 0 0,0 -0.023551890131710242,0.4569003766171651 l -5.640237275556469 -0.3393026685527763" fill="#ff3204" stroke="none" /><path d="M 120.96210409425399 101.26102812881392 l 28.587353361995252 1.7197441895969148 a49.63903441670535,49.63903441670535 0 0,0 -0.058470146812392605,0.850143102218902 l -28.553619254017793 -2.21023071597016" fill="#a4ff21" stroke="none" /><path d="M 120.93736805541906 101.62068470465957 l 6.909840646858076 0.534865366953293 a27.930510711754085,27.930510711754085 0 0,0 -0.04110623344296495,0.4777167420814674 l -6.8996407907173705 -0.6534031564104178" fill="#ff4406" stroke="none" /><path d="M 120.9064616781168 101.97986365728391 l 13.258112415527256 1.2555570301579364 a34.31743099395439,34.31743099395439 0 0,0 -0.06057452681530522,0.5860035981571243 l -13.234605496230285 -1.4829651505979922" fill="#ff9d0e" stroke="none" /><path d="M 120.86939407059847 102.33845913500097 l 28.145290688506037 3.153738527105573 a49.32143101324251,49.32143101324251 0 0,0 -0.10150330243239356,0.8405929534678757 l -28.08700529981398 -3.6364251574968574" fill="#a7ff21" stroke="none" /><path d="M 120.82617615685814 102.69636545807757 l 29.1643002637781 3.7759025587785717 a50.40771752464305,50.40771752464305 0 0,0 -0.11847129846557906,0.8571992992855952 l -29.09518444875731 -4.275990166264252" fill="#9bff22" stroke="none" /><path d="M 120.77682067341334 103.0534771498775 l 21.61939782461157 3.1773069753658927 a42.85162790078873,42.85162790078873 0 0,0 -0.11320687501818771,0.7268693467493776 l -21.561669457455118 -3.547964504046721" fill="#f4ff19" stroke="none" /><path d="M 120.7213421655516 103.40968896794604 l 29.745527621605394 4.8946152506343745 a51.14554149355145,51.14554149355145 0 0,0 -0.14999083368280325,0.8651072701694585 l -29.657121970430357 -5.404515553724421" fill="#93ff23" stroke="none" /><path d="M 120.65975698304385 103.76489593502545 l 26.933035172887287 4.90809619510642 a48.376592042918745,48.376592042918745 0 0,0 -0.15589635001417637,0.8157155788012997 l -26.844812530590954 -5.3697143389410344" fill="#b2ff20" stroke="none" /><path d="M 120.592083275326 104.11899336999214 l 9.161604447660292 1.8325774752290462 a30.343090294870628,30.343090294870628 0 0,0 -0.10655090185746521,0.509884637248629 l -9.128795834978463 -1.9895785637630843" fill="#ff6609" stroke="none" /><path d="M 120.51834098615036 104.47187691870673 l 22.045188873731696 4.804646309344097 a43.56268996898193,43.56268996898193 0 0,0 -0.16551569051693607,0.7292926721120588 l -21.959462321657096 -5.182373315395173" fill="#ebff1a" stroke="none" /><path d="M 120.43855184770803 104.8234425847677 l 12.785082188290232 3.0172445844625564 a34.1362891047588,34.1362891047588 0 0,0 -0.13949140017305586,0.5691725142631088 l -12.731403261600882 -3.2362729233337646" fill="#ff9a0e" stroke="none" /><path d="M 120.35273937422433 105.17358676015961 l 10.612781596668531 2.697727580913536 a31.9502907413186,31.9502907413186 0 0,0 -0.1396844181619181,0.5304044877800373 l -10.564907697701884 -2.8795125730663766" fill="#ff7d0b" stroke="none" /><path d="M 120.26092885502905 105.52220625578681 l 25.84568281134364 7.044355780878076 a47.78847267673494,47.78847267673494 0 0,0 -0.2225156628468518,0.7896295879811719 l -25.72094865642221 -7.486993292762256" fill="#b9ff1f" stroke="none" /><path d="M 120.16314734710363 105.8691983318838 l 11.28712737250021 3.2855182777779097 a32.75558908250268,32.75558908250268 0 0,0 -0.16178715428981474,0.538536818210591 l -11.229063898206766 -3.478792699579224" fill="#ff880c" stroke="none" /><path d="M 120.05942366710727 106.21446072829308 l 14.671000946867103 4.5451135955893545 a36.35891683615048,36.35891683615048 0 0,0 -0.18982000863631007,0.5946084734749421 l -14.590816222453537 -4.79629110275568" fill="#ffb811" stroke="none" /><path d="M 119.94978838288452 106.5578916946017 l 31.949946332559332 10.502581966083273 a54.63187920125367,54.63187920125367 0 0,0 -0.30051326164963327,0.888414060359908 l -31.764947649337334 -11.049497700917343" fill="#6dff28" stroke="none" /><path d="M 119.83427380445688 106.89939002012753 l 2.1373623426792463 0.7434855725932329 a23.262982231604482,23.262982231604482 0 0,0 -0.13443769370944236,0.3760461560934031 l -2.1242844789258606 -0.7800666850675574" fill="#ff0000" stroke="none" /><path d="M 119.71291397450082 107.23885506374661 l 5.250219635751364 1.9279533733674201 a26.593014431727134,26.593014431727134 0 0,0 -0.16103883145692627,0.4271746330036222 l -5.216350120479997 -2.017796286565201" fill="#ff3104" stroke="none" /><path d="M 119.58574465831526 107.57618678355244 l 18.377750596918183 7.108908729935993 a40.704778616698206,40.704778616698206 0 0,0 -0.2576832002149726,0.6495299956667921 l -18.253008721737086 -7.423339742816349" fill="#fff016" stroke="none" /><path d="M 119.4528033332814 107.91128576633889 l 2.783098165008435 1.131861795029057 a24.004454446171504,24.004454446171504 0 0,0 -0.15851416417548753,0.3803762889658882 l -2.7632581562964624 -1.179470593436223" fill="#ff0b01" stroke="none" /><path d="M 119.31412917781788 108.2440532568976 l 11.813733367220461 5.042580286457278 a33.84491775050139,33.84491775050139 0 0,0 -0.2326694947188084,0.5323933370622573 l -11.725429990484686 -5.244635693295381" fill="#ff960d" stroke="none" /><path d="M 119.16976305983485 108.57439118712176 l 5.533421422993938 2.4750290202261245 a27.061725933709784,27.061725933709784 0 0,0 -0.19331806180434669,0.42243485339793113 l -5.490118896334536 -2.5696528558387444" fill="#ff3805" stroke="none" /><path d="M 119.0197475246899 108.90220220490707 l 20.568676987923602 9.627179403733976 a43.71019718772203,43.71019718772203 0 0,0 -0.3239149200510415,0.6768576027483941 l -20.40038280991265 -9.978849508547473" fill="#e9ff1a" stroke="none" /><path d="M 118.8641267826498 109.22738970284198 l 10.739486827644582 5.253221169948823 a32.95545523941058,32.95545523941058 0 0,0 -0.25294110169690803,0.5060516419205471 l -10.647725812735942 -5.436804668033116" fill="#ff8a0c" stroke="none" /><path d="M 118.70294669586154 109.54985784667822 l 2.159796409754191 1.102807435979189 a23.4250576843527,23.4250576843527 0 0,0 -0.18594133808466456,0.3565670330617655 l -2.140547002694577 -1.1397207121454573" fill="#ff0200" stroke="none" /><path d="M 118.5362547648365 109.86951160357373 l 18.11069486909194 9.642924928846199 a41.51787683520682,41.51787683520682 0 0,0 -0.3403569319656404,0.626218419616595 l -17.942492587510962 -9.952398181937397" fill="#fffa17" stroke="none" /><line stroke="#e1ed5e" stroke-width="0.3" x1="174.33088141563837" x2="178.70328620479359" y1="141.23008692659167" y2="143.65538615756765" /><path d="M 175.20536237346943 141.71514677278685 a86.0,86.0 0 0,1 -30.301960400862466,31.631185727798858" fill="none" id="id53" stroke="none" /><text fill="#e1ed5e" style="font-size:6.75px; font-family:Arial;" text-anchor="middle"><textPath startOffset="22.145653131862474" xlink:href="#id53">May</textPath></text><path d="M 118.36410011445183 110.18625677009912 l 18.124733097944638 10.053483921049136 a41.726275324392546,41.726275324392546 0 0,0 -0.35281877616875623,0.6233969710480092 l -17.949480956754503 -10.363137662196268" fill="#fffc17" stroke="none" /><path d="M 118.18653347947321 110.5 l 14.134207252403908 8.160388361957352 a37.32077672391471,37.32077672391471 0 0,0 -0.3250929152943394,0.5520788422695904 l -13.992040626979803 -8.401818372520491" fill="#ffc412" stroke="none" /><path d="M 118.00360718960297 110.81064883170644 l 4.9712276183907385 2.985079349872652 a26.798603517993534,26.798603517993534 0 0,0 -0.24020741380687982,0.39236075816556587 l -4.919252240128454 -3.0699772241627747" fill="#ff3404" stroke="none" /><path d="M 117.81537515405839 111.11811171558189 l 20.892575215461097 13.038512142629706 a45.62727142878808,45.62727142878808 0 0,0 -0.42038427623114266,0.660913906207708 l -20.66567324760406 -13.395239723516086" fill="#d2ff1c" stroke="none" /><path d="M 117.62189284568427 111.42229804090321 l 2.245985378577769 1.4558205871685936 a23.676539538809212,23.676539538809212 0 0,0 -0.22399760844231043,0.33916092878926757 l -2.2206633312147317 -1.4941613942969223" fill="#ff0601" stroke="none" /><path d="M 117.423217284605 111.72311816256416 l 4.763160379233854 3.2048668762422707 a26.740981492109,26.740981492109 0 0,0 -0.2595279274153992,0.37865900218514487 l -4.707442715003134 -3.2861606134974597" fill="#ff3304" stroke="none" /><path d="M 117.21940702142032 112.02048342749411 l 11.077600956918273 7.733025797774867 a34.50973467355182,34.50973467355182 0 0,0 -0.34326488224009866,0.48284504510962784 l -10.943220976148213 -7.922048069593999" fill="#ff9f0e" stroke="none" /><path d="M 117.01052211995028 112.31430620078461 l 4.522885667290946 3.274220428121904 a26.583638076676948,26.583638076676948 0 0,0 -0.27077078555788797,0.367352573644347 l -4.466012862149229 -3.3513793110351284" fill="#ff3104" stroke="none" /><path d="M 116.79662413953412 112.60449989151573 l 5.244645559731036 3.9356798032453857 a27.557124564996467,27.557124564996467 0 0,0 -0.2871820105166953,0.37593047043274164 l -5.176311571860036 -4.025131186919005" fill="#ff3f05" stroke="none" /><path d="M 116.57777611688842 112.89097897827486 l 4.396066560101849 3.4184079465060755 a26.568744390756464,26.568744390756464 0 0,0 -0.28306285790075864,0.35764067402359484 l -4.336737271559529 -3.4933685644443533" fill="#ff3104" stroke="none" /><path d="M 116.1254893667686 113.45245675266167 l 22.34521019804038 18.6411690821455 a50.09985573063456,50.09985573063456 0 0,0 -0.556598509974585,0.6556716452030149 l -22.02191712455868 -19.02200750979807" fill="#9eff22" stroke="none" /><path d="M 115.89218393027572 113.72728997021213 l 21.86836062726629 18.8893690647366 a49.896945516576636,49.896945516576636 0 0,0 -0.5654724273907857,0.6434038200289426 l -21.540877135916922 -19.261985162576835" fill="#a1ff22" stroke="none" /><path d="M 115.6541949942343 113.99807769240083 l 4.081303483019256 3.6495267410819725 a26.47504187695195,26.47504187695195 0 0,0 -0.3058526680788598,0.33618565972000836 l -4.0180531140985165 -3.7190499763596527" fill="#ff2f04" stroke="none" /><path d="M 115.41159269507618 114.26474011684316 l 12.903457653771964 11.943247766893956 a38.5823885363765,38.5823885363765 0 0,0 -0.45406724987078334,0.48220368414816883 l -12.696534570164921 -12.16299291098662" fill="#ffd513" stroke="none" /><path d="M 115.16444852881244 114.52719865689866 l 14.969722627724224 14.340655648534234 a41.73034008357884,41.73034008357884 0 0,0 -0.49999544559495074,0.5130393743750561 l -14.721340380978466 -14.595517714977028" fill="#fffc17" stroke="none" /><path d="M 114.91283532996324 114.78537596483092 l 4.1740880508530065 4.138412298979103 a26.87787949966783,26.87787949966783 0 0,0 -0.32766449150895915,0.3248639571276643 l -4.102431639214083 -4.209456266335429" fill="#ff3505" stroke="none" /><path d="M 114.65682725009322 115.03919595460226 l 10.527894921943014 10.802547646835102 a36.08415085941586,36.08415085941586 0 0,0 -0.4473189187091806,0.4285214053600852 l -10.340903517368522 -10.981681182500768" fill="#ffb410" stroke="none" /><path d="M 114.39649973595853 115.28858382429668 l 9.381045386022787 9.962345109867902 a34.684017415318074,34.684017415318074 0 0,0 -0.4369694485390974,0.404452397992709 l -9.208646166169723 -10.121915253992992" fill="#ffa20e" stroke="none" /><path d="M 114.13192950727249 115.5334660781643 l 3.802199671620396 4.17928348645732 a26.650055999991956,26.650055999991956 0 0,0 -0.3410381944911102,0.3049584564598158 l -3.7298964503059078 -4.243937472800523" fill="#ff3204" stroke="none" /><path d="M 113.86319453409587 115.77377054828091 l 9.678042547974906 11.011835845828896 a35.66032183329871,35.66032183329871 0 0,0 -0.4632794073516454,0.4001697180101608 l -9.487583660860405 -11.176349696303776" fill="#ffaf10" stroke="none" /><path d="M 113.59037401385872 116.0094264158162 l 7.198313890258983 8.479595662822259 a32.12291623036196,32.12291623036196 0 0,0 -0.4234498892443628,0.35325695812484426 l -7.051689666852725 -8.601914804858973" fill="#ff7f0b" stroke="none" /><path d="M 113.31354834802062 116.24036423190432 l 14.829646059457517 18.089756925817692 a44.39140243516735,44.39140243516735 0 0,0 -0.5934691445963429,0.4780567334103217 l -14.51692614450592 -18.34166195302142" fill="#e1ff1b" stroke="none" /><path d="M 113.03279911837588 116.46651593811092 l 4.503339960914868 5.689822928106136 a28.25631833347842,28.25631833347842 0 0,0 -0.3829270094728176,0.29776635867937506 l -4.40500300680682 -5.7662903384063044" fill="#ff4906" stroke="none" /><path d="M 112.7482090630111 116.68781488649013 l 5.6404901938358805 7.383582725898853 a30.291524282750956,30.291524282750956 0 0,0 -0.4159271661080086,0.3121194995217793 l -5.512910038817106 -7.479321252684647" fill="#ff6609" stroke="none" /><path d="M 112.45986205192187 116.90419585922612 l 12.320905845106815 16.71567507736926 a41.765801552942065,41.765801552942065 0 0,0 -0.5807812938291192,0.4204408681560521 l -12.032143540903727 -16.924716716898388" fill="#fffd17" stroke="none" /><path d="M 112.16784306229584 117.11559508785304 l 13.014514438616521 18.30654441020942 a43.461236704952995,43.461236704952995 0 0,0 -0.6117788054115874,0.42706911931370317 l -12.698340542031175 -18.527258345328246" fill="#ecff1a" stroke="none" /><path d="M 111.8722381534696 117.32195027204791 l 12.342366471055001 18.007881537360007 a42.83157821984966,42.83157821984966 0 0,0 -0.6100516205819324,0.41046995606631687 l -12.031418562376066 -18.217101167483445" fill="#f4ff19" stroke="none" /><path d="M 111.5731344415666 117.5232005979908 l 8.162259066516707 12.358700547159648 a35.81080525438433,35.81080525438433 0 0,0 -0.5158706242808301,0.3343811060867717 l -7.9489028099788674 -12.496995494950315" fill="#ffb110" stroke="none" /><path d="M 111.27062007382361 117.71928675628689 l 5.6307953599679434 8.85254555611979 a31.49158802131559,31.49158802131559 0 0,0 -0.4586312980140206,0.28621985018488866 l -5.477999933164209 -8.947901203146227" fill="#ff760a" stroke="none" /><path d="M 110.96478420261333 117.91015095944535 l 3.117950091944434 5.0929371521449385 a26.971567768312983,26.971567768312983 0 0,0 -0.3969537191179422,0.23835930292359234 l -3.030063616269055 -5.145710455604454" fill="#ff3605" stroke="none" /><line stroke="#e1ed5e" stroke-width="0.3" x1="143.1302829299769" x2="145.66735839644613" y1="173.24464959558577" y2="177.55315839532614" /><path d="M 143.63769802327073 174.10635135553383 a86.0,86.0 0 0,1 -40.68552437913181,11.842963189579606" fill="none" id="id54" stroke="none" /><text fill="#e1ed5e" style="font-size:6.75px; font-family:Arial;" text-anchor="middle"><textPath startOffset="21.407464694133747" xlink:href="#id54">June</textPath></text><path d="M 110.65571695917076 118.09573695890943 l 11.130954284320334 18.90279383381647 a42.936584921163075,42.936584921163075 0 0,0 -0.6383392960351785,0.3685453644002279 l -10.804822520424755 -19.09108609549287" fill="#f3ff19" stroke="none" /><path d="M 110.34350942703117 118.27599006163325 l 31.03052828109348 54.82797018489977 a84.0,84.0 0 0,0 -1.2610232473756222,0.6994683382674252 l -30.084760845561767 -55.352571438600336" fill="#4dd2ff" stroke="none" /><path d="M 110.02825361518725 118.45085714620011 l 6.719432931780677 12.36299976897252 a35.07105334409309,35.07105334409309 0 0,0 -0.5314286388684194,0.28295581736031156 l -6.506215477125704 -12.4765260540554" fill="#ffa70f" stroke="none" /><path d="M 109.71004243097381 118.62028667847754 l 10.716177638410946 20.54968360263806 a44.17597806666442,44.17597806666442 0 0,0 -0.6754144767325617,0.34487144433832495 l -10.361835939964802 -20.73061299864922" fill="#e4ff1b" stroke="none" /><path d="M 109.3889696526874 118.78422872680471 l 2.6051406860752753 5.212026486712112 a26.826832595195555,26.826832595195555 0 0,0 -0.41369498955792,0.20235894991307132 l -2.5152854472552857 -5.255979186722407" fill="#ff3405" stroke="none" /><path d="M 109.06512990194946 118.94263497670748 l 2.483837374660746 5.190264810169319 a26.753980961338293,26.753980961338293 0 0,0 -0.41597508251160964,0.1946973424286627 l -2.39437357827763 -5.232138384168516" fill="#ff3304" stroke="none" /><path d="M 108.73861861582097 119.09545874513695 l 7.450233243525058 16.280104190130647 a38.90384784967844,38.90384784967844 0 0,0 -0.6096540430796721,0.2726904989831692 l -7.169665797589759 -16.405598440023667" fill="#ffd914" stroke="none" /><path d="M 108.4095320186766 119.2426549942271 l 11.701994895055677 26.776454386483124 a50.221827356195924,50.221827356195924 0 0,0 -0.792942686293366,0.3384600814919315 l -11.24061713359188 -26.973389117634458" fill="#9dff22" stroke="none" /><path d="M 108.07796709384702 119.3841803445677 l 11.39197272010002 27.336587426187407 a50.61530102101092,50.61530102101092 0 0,0 -0.8048930462604533,0.32734299479659484 l -10.921025212649125 -27.52811767756329" fill="#99ff23" stroke="none" /><path d="M 107.74402155503746 119.51999308798841 l 0.8565061754288895 2.1589550733256475 a23.322647161578008,23.322647161578008 0 0,0 -0.3734152803713849,0.1444450523215165 l -0.8193186325639753 -2.1733400137852046" fill="#ff0100" stroke="none" /><path d="M 107.407793817531 119.65005319985036 l 5.160899187498712 13.689898246549015 a35.630385997108576,35.630385997108576 0 0,0 -0.5741766262939251,0.2108456103501051 l -4.92513340955066 -13.776474705907843" fill="#ffae10" stroke="none" /><path d="M 107.06938296918513 119.77432235084164 l 3.5678345840913184 9.979868323421035 a31.598453442472664,31.598453442472664 0 0,0 -0.5123376671174311,0.1782176359111848 l -3.3959911449288653 -10.039644391900811" fill="#ff780b" stroke="none" /><path d="M 106.72888874123015 119.89276391827305 l 4.536575653170648 13.411579821932216 a35.158071619291945,35.158071619291945 0 0,0 -0.5733733389409522,0.18847920515150976 l -4.305679576581961 -13.487479948485745" fill="#ffa80f" stroke="none" /><path d="M 106.38641147887787 120.00534299687104 l 4.6904590643934805 14.692796213698006 a36.42331568800981,36.42331568800981 0 0,0 -0.5972719018590521,0.18503636195203177 l -4.4375465296628045 -14.771149163456682" fill="#ffb911" stroke="none" /><path d="M 106.0420521117495 120.11202640906438 l 2.7572776937373016 9.178080686482474 a30.583305555389742,30.583305555389742 0 0,0 -0.5041002383939115,0.14673623256087334 l -2.5993174429617834 -9.224060613345866" fill="#ff6a09" stroke="none" /><path d="M 105.3480935250658 120.30758222061773 l 9.209593596412203 34.97032695876689 a57.16269323230966,57.16269323230966 0 0,0 -0.9510639257309237,0.24175673081424584 l -8.607924377455882 -35.123268921416404" fill="#52ff2b" stroke="none" /><path d="M 104.9986988182912 120.39639698878246 l 3.625807904455309 14.794533560158914 a36.23235721162943,36.23235721162943 0 0,0 -0.6053699590367512,0.14286566199573436 l -3.3713057916786786 -14.854595365800874" fill="#ffb610" stroke="none" /><path d="M 104.64783097203109 120.47920084513623 l 1.2424208047045742 5.474335307551414 a26.61355115016037,26.61355115016037 0 0,0 -0.4463949020150241,0.09728969122292873 l -1.1482634860704144 -5.494856456908061" fill="#ff3104" stroke="none" /><path d="M 104.29559338865022 120.5559693870025 l 1.189628481527138 5.692802934465402 a26.815773480347946,26.815773480347946 0 0,0 -0.45140334135755783,0.09029331055940201 l -1.0917286546386216 -5.712385641687666" fill="#ff3405" stroke="none" /><path d="M 103.94208987418118 120.62667999033965 l 3.2220253101307907 16.858997920905406 a38.16412706770188,38.16412706770188 0 0,0 -0.644547156917038,0.11745796298576407 l -2.932143419662695 -16.911824057822532" fill="#ffcf13" stroke="none" /><path d="M 103.58742460773223 120.69131181640829 l 1.8379260522335605 10.600669059441158 a31.758817624686827,31.758817624686827 0 0,0 -0.5379679002636045,0.08852241326757804 l -1.6556806489168838 -10.630657471204406" fill="#ff7a0b" stroke="none" /><path d="M 102.875027216393 120.80226474461374 l 0.7539400886467584 5.455134906612864 a26.506988515206366,26.506988515206366 0 0,0 -0.4512779175748944,0.05842696132873203 l -0.6601843491810887 -5.46727346414199" fill="#ff3004" stroke="none" /><path d="M 102.51750503828377 120.84855314841334 l 1.4883385239775053 12.325578041793973 a33.41511279152587,33.41511279152587 0 0,0 -0.5700683455792198,0.06387734717093316 l -1.276534276797486 -12.349311149471877" fill="#ff910d" stroke="none" /><path d="M 102.15924093988457 120.88869738790638 l 1.7038964409291086 16.483652415742736 a37.57148333868855,37.57148333868855 0 0,0 -0.6421153225965688,0.060808988654679215 l -1.4206815549475245 -16.5104731599026" fill="#ffc812" stroke="none" /><path d="M 101.80034050326958 120.92268563240118 l 1.0819649257371764 12.574072496492356 a33.62053672581206,33.62053672581206 0 0,0 -0.5754411100740348,0.04454278126366187 l -0.8659548208879059 -12.590793044751072" fill="#ff930d" stroke="none" /><path d="M 101.44090949804482 120.95050786540614 l 1.5168709259075663 22.054970355288706 a43.10707160115349,43.10707160115349 0 0,0 -0.738682056128824,0.04443727818735103 l -1.1380445176462772 -22.07775961130075" fill="#f1ff19" stroke="none" /><path d="M 101.08105385017728 120.97215588758144 l 0.4297536356502829 8.337105722008756 a29.348174651222013,29.348174651222013 0 0,0 -0.5033550706075192,0.02161623253545428 l -0.28657280444193417 -8.343254522970042" fill="#ff5808" stroke="none" /><path d="M 100.72087961077811 120.9876233191556 l 0.2940575931045807 8.561165978262212 a29.56621461180006,29.56621461180006 0 0,0 -0.5073938142580844,0.013068664805521652 l -0.14705046477575243 -8.564952360417779" fill="#ff5b08" stroke="none" /><line stroke="#e1ed5e" stroke-width="0.3" x1="101.45913802915013" x2="101.54496967792366" y1="184.9874750549273" y2="189.98673829345242" /><path d="M 101.47630435890484 185.9873277026323 a86.0,86.0 0 0,1 -42.54439059252881,-10.42667462771756" fill="none" id="id55" stroke="none" /><text fill="#e1ed5e" style="font-size:6.75px; font-family:Arial;" text-anchor="middle"><textPath startOffset="22.145653131862474" xlink:href="#id55">July</textPath></text><path d="M 100.36049292484886 120.99690560180557 l 0.09626252729320978 5.606809618841202 a26.607635916862925,26.607635916862925 0 0,0 -0.4567554521420613,0.003920696216158196 l -6.867373376369915e-16 -5.607635916862925" fill="#ff3104" stroke="none" /><path d="M 100.0 121.0 l 1.12001318583158e-15 9.145601708275208 a30.14560170827521,30.14560170827521 0 0,0 -0.5174893395783183,-0.004442023595059084 l 0.15699641472946502 -9.144254082874584" fill="#ff6409" stroke="none" /><path d="M 99.63950707515114 120.99690560180557 l -0.20420137937591215 11.89370661938026 a32.89545944262889,32.89545944262889 0 0,0 -0.5645278862213943,-0.01454023583078726 l 0.4083425796680503 -11.888448666199425" fill="#ff890c" stroke="none" /><path d="M 99.27912038922189 120.98762331915562 l -0.473967339316901 13.799041940482155 a34.80717941919799,34.80717941919799 0 0,0 -0.5969833034733227,-0.025637031712207253 l 0.7107764033910624 -13.788872340344119" fill="#ffa30f" stroke="none" /><path d="M 98.91894614982273 120.97215588758144 l -0.6093329055217601 11.820895582527951 a32.83658983672157,32.83658983672157 0 0,0 -0.5626872528311699,-0.03384986785461192 l 0.8121645104853764 -11.808693736848648" fill="#ff890c" stroke="none" /><path d="M 98.55909050195518 120.95050786540614 l -0.6658338364376187 9.681077851362708 a30.703947808077434,30.703947808077434 0 0,0 -0.5255214678583789,-0.040678685242287724 l 0.8319242990712338 -9.668221399125366" fill="#ff6b09" stroke="none" /><path d="M 98.19965949673042 120.92268563240118 l -0.7053126930360724 8.19680261713597 a29.227091778948676,29.227091778948676 0 0,0 -0.4995055238309957,-0.04730369244073062 l 0.8459177802520834 -8.183487169190057" fill="#ff5708" stroke="none" /><path d="M 97.84075906011543 120.88869738790638 l -0.6230218077042473 6.027170829715806 a27.059285798132663,27.059285798132663 0 0,0 -0.4616366966568712,-0.05172735474240761 l 0.7263944059619178 -6.015587714466427" fill="#ff3805" stroke="none" /><path d="M 97.48249496171623 120.84855314841334 l -1.5483713069729792 12.822735603703558 a33.91588177658591,33.91588177658591 0 0,0 -0.5774133297742534,-0.07475771575686689 l 1.7682624586380267 -12.794266291746295" fill="#ff970e" stroke="none" /><path d="M 97.12497278360702 120.80226474461374 l -0.8998664192253795 6.510985141559528 a27.572875100445653,27.572875100445653 0 0,0 -0.46831201497828323,-0.0688257389918729 l 1.0115035398113477 -6.494578329268773" fill="#ff3f05" stroke="none" /><path d="M 96.76829788921471 120.74984581791261 l -0.8349867683366756 5.361214031813418 a26.425847288508074,26.425847288508074 0 0,0 -0.4476318276860249,-0.07365764690184617 l 0.9268960990757641 -5.346090386415904" fill="#ff2f04" stroke="none" /><path d="M 96.41257539226777 120.69131181640829 l -1.638056435915432 9.44787422580185 a30.588824551206205,30.588824551206205 0 0,0 -0.5166092195149292,-0.09414340895416773 l 1.8000003889814185 -9.418362642916316" fill="#ff6a09" stroke="none" /><path d="M 96.05791012581884 120.62667999033965 l -2.1114195882488733 11.047839486711482 a32.24779311695332,32.24779311695332 0 0,0 -0.5428432476530275,-0.10858385274242818 l 2.3007593214328588 -11.009966237306191" fill="#ff810b" stroke="none" /><path d="M 95.70440661134978 120.55596938700252 l -2.4836295339900594 11.88506640415454 a33.14179637011223,33.14179637011223 0 0,0 -0.5558945839194765,-0.12115463724584422 l 2.6872865345286723 -11.840680308774976" fill="#ff8d0d" stroke="none" /><path d="M 95.35216902796893 120.47920084513623 l -1.3612229763276669 5.997799596194531 a27.15032746993147,27.15032746993147 0 0,0 -0.4536274726015054,-0.10705484837038522 l 1.46398260266906 -5.9735486041779176" fill="#ff3905" stroke="none" /><path d="M 95.00130118170881 120.39639698878247 l -1.3514642758136908 5.514435433634821 a26.677627483423677,26.677627483423677 0 0,0 -0.4438581824768283,-0.11282701429169 l 1.4459277515158977 -5.490423187507868" fill="#ff3204" stroke="none" /><path d="M 94.6519064749342 120.30758222061772 l -9.09920521299693 34.55116428670435 a56.72923857396159,56.72923857396159 0 0,0 -0.9395944898493702,-0.2560906563995477 l 9.690981103780995 -34.38987313616066" fill="#57ff2a" stroke="none" /><path d="M 94.30408787586889 120.21278271476187 l -4.814112115926465 17.083585568583157 a38.748931554992616,38.748931554992616 0 0,0 -0.63869308041291,-0.1859142472955106 l 5.106665208720981 -16.99842762698513" fill="#ffd714" stroke="none" /><path d="M 93.95794788825049 120.11202640906438 l -1.5942058288080856 5.3065927167564055 a26.54088607409842,26.54088607409842 0 0,0 -0.4352191776906002,-0.13483201376284812 l 1.6850656393703194 -5.278444115186908" fill="#ff3004" stroke="none" /><path d="M 93.61358852112213 120.00534299687104 l -3.0547910266484926 9.569089382039728 a31.044860368265834,31.044860368265834 0 0,0 -0.5062932756681784,-0.16642865597439357 l 3.2186070399644144 -9.515239804663313" fill="#ff700a" stroke="none" /><path d="M 92.93061703081489 119.77432235084164 l -2.0120331464893666 5.628014805915253 a26.9768577060336,26.9768577060336 0 0,0 -0.43472672866690243,-0.15963767635911316 l 2.1083490268103877 -5.592646280547421" fill="#ff3605" stroke="none" /><path d="M 92.59220618246901 119.65005319985036 l -5.217333249557378 13.83959630092955 a35.790368217513716,35.790368217513716 0 0,0 -0.5730340252522939,-0.22166187114050245 l 5.454139537303201 -13.747994541651007" fill="#ffb010" stroke="none" /><path d="M 92.25597844496254 119.51999308798841 l -8.470993027115513 21.352436090538866 a43.97137892826607,43.97137892826607 0 0,0 -0.6992402775428146,-0.2843749335352075 l 8.836287765848768 -21.20387390042437" fill="#e6ff1a" stroke="none" /><path d="M 91.92203290615298 119.3841803445677 l -7.896531152396352 18.948800134521402 a41.528327520253676,41.528327520253676 0 0,0 -0.6556827044071726,-0.2798719572077581 l 8.220648931973956 -18.81045352765424" fill="#fffa17" stroke="none" /><path d="M 91.59046798132341 119.24265499422711 l -2.305777289737891 5.276069676815698 a26.757909355355043,26.757909355355043 0 0,0 -0.4193175874500551,-0.18755542336201733 l 2.3960082800435814 -5.235710502543826" fill="#ff3304" stroke="none" /><path d="M 90.93487009805054 118.94263497670748 l -5.388676578706662 11.260261523226685 a33.483241760110275,33.483241760110275 0 0,0 -0.5163430793091419,-0.2525692743717709 l 5.581179907277874 -11.166098498757693" fill="#ff910d" stroke="none" /><path d="M 90.6110303473126 118.78422872680471 l -2.656002777042076 5.313784739809719 a26.940594163271033,26.940594163271033 0 0,0 -0.4118995912708704,-0.21031886620368978 l 2.746829590026529 -5.267407921933193" fill="#ff3605" stroke="none" /><path d="M 90.28995756902619 118.62028667847754 l -8.908023087024262 17.082308836239893 a40.265465229151275,40.265465229151275 0 0,0 -0.6101391130225354,-0.32486471146229023 l 9.19995101583336 -16.92687365705503" fill="#ffea16" stroke="none" /><path d="M 89.97174638481275 118.45085714620012 l -2.8349713435203028 5.216027962600287 a26.936666592053946,26.936666592053946 0 0,0 -0.40437812832601694,-0.22430173118579927 l 2.9240936600024225 -5.1665933159813395" fill="#ff3605" stroke="none" /><line stroke="#e1ed5e" stroke-width="0.3" x1="58.13341422392154" x2="55.67067388415222" y1="173.97424548756322" y2="178.32567169271397" /><path d="M 57.64086615596768 174.84453072859336 a86.0,86.0 0 0,1 -31.369924170532247,-30.572349798747897" fill="none" id="id56" stroke="none" /><text fill="#e1ed5e" style="font-size:6.75px; font-family:Arial;" text-anchor="middle"><textPath startOffset="22.145653131862474" xlink:href="#id56">August</textPath></text><path d="M 89.65649057296885 118.27599006163327 l -13.066220021382742 23.086758796762243 a47.527806871037455,47.527806871037455 0 0,0 -0.7065971091054353,-0.40795403115063755 l 13.460609598348578 -22.859057868335434" fill="#bcff1f" stroke="none" /><path d="M 89.34428304082925 118.09573695890944 l -4.624837268558418 7.853984768013887 a30.11450473129731,30.11450473129731 0 0,0 -0.4432098554733512,-0.2661347837582674 l 4.758979880589195 -7.7734359837197005" fill="#ff6309" stroke="none" /><path d="M 89.03521579738668 117.91015095944536 l -9.401109252593201 15.356005443322136 a39.00521475446857,39.00521475446857 0 0,0 -0.5680568493417739,-0.3545094872921881 l 9.663330230724688 -15.1923601591884" fill="#ffda14" stroke="none" /><path d="M 88.4268655584334 117.5232005979908 l -8.978712075264951 13.59491446339512 a37.2922978673218,37.2922978673218 0 0,0 -0.5311554627384795,-0.35738510004559226 l 9.210763826100436 -13.438779689292407" fill="#ffc412" stroke="none" /><path d="M 88.1277618465304 117.32195027204791 l -10.022020492296656 14.622427409971891 a38.727274976936286,38.727274976936286 0 0,0 -0.5451415518402746,-0.380551141011005 l 10.271557135310696 -14.448231453155758" fill="#ffd714" stroke="none" /><path d="M 87.83215693770417 117.11559508785305 l -3.454936243368226 4.859800499816884 a26.96273807438829,26.96273807438829 0 0,0 -0.37493483476355205,-0.27142390621884593 l 3.537852088505732 -4.799775822224973" fill="#ff3605" stroke="none" /><path d="M 87.54013794807813 116.9041958592261 l -9.998410069199451 13.564763509122178 a37.851439492526495,37.851439492526495 0 0,0 -0.5197309258616664,-0.3900157760404841 l 10.229793983971884 -13.391128705817678" fill="#ffcb12" stroke="none" /><path d="M 87.2517909369889 116.68781488649013 l -12.261249922792517 16.05036974034559 a41.19783697505703,41.19783697505703 0 0,0 -0.5583092716971579,-0.4341446665751488 l 12.534969139124904 -15.837524022149648" fill="#fff617" stroke="none" /><path d="M 86.96720088162412 116.46651593811092 l -9.83389557938302 12.42480581652734 a36.845545173474484,36.845545173474484 0 0,0 -0.4925884963473029,-0.3967944241472962 l 10.045734846085585 -12.254163098586634" fill="#ffbe11" stroke="none" /><path d="M 86.68645165197938 116.24036423190432 l -14.142016796735037 17.250961032250444 a43.306776898856526,43.306776898856526 0 0,0 -0.5708774928727772,-0.47624630851608557 l 14.436068623769707 -17.00565253982249" fill="#eeff19" stroke="none" /><path d="M 86.40962598614128 116.0094264158162 l -8.811073857707413 10.379422849249258 a34.61497121588924,34.61497121588924 0 0,0 -0.4496987835767829,-0.38843909864709736 l 8.987952121047059 -10.226639618137439" fill="#ffa10e" stroke="none" /><path d="M 86.13680546590413 115.77377054828092 l -29.63225002981578 33.71606101681878 a65.88700271035441,65.88700271035441 0 0,0 -0.8431496145740752,-0.7539495844706605 l 30.206664671213225 -33.202415902464736" fill="#36ff6f" stroke="none" /><path d="M 85.86807049272751 115.53346607816431 l -12.327075175260621 13.549615003340676 a39.317992496867156,39.317992496867156 0 0,0 -0.49535096506532683,-0.4584894581039576 l 12.557855911639916 -13.336007799104342" fill="#ffde14" stroke="none" /><path d="M 85.60350026404147 115.28858382429668 l -9.509226567525358 10.09846908264197 a34.870993754075656,34.870993754075656 0 0,0 -0.4322799580668887,-0.41411442125982223 l 9.68117901145756 -9.933742531076565" fill="#ffa40f" stroke="none" /><path d="M 85.34317274990678 115.03919595460226 l -4.003412562903884 4.107853970936657 a26.73600700795917,26.73600700795917 0 0,0 -0.32593494369045206,-0.3231491916803184 l 4.073339426724299 -4.038524769027679" fill="#ff3304" stroke="none" /><path d="M 85.08716467003676 114.78537596483092 l -15.076362355012074 14.947505331397409 a42.23027596362749,42.23027596362749 0 0,0 -0.5059854677853521,-0.519185664834566 l 15.330734623948237 -14.686496974495105" fill="#fbff18" stroke="none" /><path d="M 84.83555147118756 114.52719865689866 l -2.5683623510786986 2.4604330336265434 a24.55671419703625,24.55671419703625 0 0,0 -0.2890023169716021,-0.30691044555783553 l 2.6102205017865536 -2.415981128124218" fill="#ff1302" stroke="none" /><path d="M 84.58840730492382 114.26474011684316 l -12.365770945897529 11.445572977281826 a37.84973091371751,37.84973091371751 0 0,0 -0.43725865438971634,-0.48062385761626486 l 12.560427301129126 -11.231611544107887" fill="#ffcb12" stroke="none" /><path d="M 84.3458050057657 113.99807769240083 l -14.822204695592395 13.25410683704846 a40.883890466554476,40.883890466554476 0 0,0 -0.46332921873184485,-0.5271835987452661 l 15.047544978282833 -12.997710960491894" fill="#fff216" stroke="none" /><path d="M 84.1078160697243 113.72728997021213 l -3.9137849733968024 3.3806342442668154 a26.17169224833575,26.17169224833575 0 0,0 -0.2907618135121667,-0.342516685207151 l 3.9712413504160815 -3.31295077661011" fill="#ff2b04" stroke="none" /><path d="M 83.8745106332314 113.45245675266167 l -4.516798698467965 3.7680741197744507 a26.88216397719376,26.88216397719376 0 0,0 -0.29257162298744555,-0.3568898085642155 l 4.58081714069404 -3.6899820295117403" fill="#ff3505" stroke="none" /><path d="M 83.64595745247003 113.17365903436017 l -4.577559002045564 3.687357503648061 a26.877980246387192,26.877980246387192 0 0,0 -0.2863574503652288,-0.3618032839766114 l 4.640182883052354 -3.6082342757567694" fill="#ff3505" stroke="none" /><path d="M 83.4222238831116 112.89097897827486 l -19.08535707063552 14.840889094876417 a45.1764936175633,45.1764936175633 0 0,0 -0.4707993475366684,-0.6162914587875803 l 19.337308395526485 -14.511076722847966" fill="#d8ff1c" stroke="none" /><path d="M 82.98947788004972 112.3143062007846 l -16.62571903674575 12.03573844371211 a41.52494904681275,41.52494904681275 0 0,0 -0.413044518580566,-0.5809988423657648 l 16.829878653856277 -11.748562374636842" fill="#fffa17" stroke="none" /><path d="M 82.78059297857968 112.02048342749411 l -19.63696661076276 13.708127777994703 a44.94834492924389,44.94834492924389 0 0,0 -0.43623495284498803,-0.6364798332403494 l 19.869391300423075 -13.3690132096843" fill="#daff1b" stroke="none" /><path d="M 82.576782715395 111.72311816256416 l -8.278500709313526 5.570144734974182 a30.977980074276815,30.977980074276815 0 0,0 -0.2930746463028331,-0.44375236832162357 l 8.372899794537085 -5.427212488313497" fill="#ff6f0a" stroke="none" /><path d="M 82.37810715431573 111.42229804090323 l -17.842907711955235 11.5655572069942 a42.26338329442441,42.26338329442441 0 0,0 -0.38939128378595406,-0.6121877742846554 l 18.038816687367078 -11.257555758030872" fill="#fbff18" stroke="none" /><path d="M 82.18462484594161 111.11811171558189 l -11.186655902677034 6.981300644763807 a34.18635010067147,34.18635010067147 0 0,0 -0.3064269651090272,-0.5005254186251423 l 11.304850832241465 -6.788238110014107" fill="#ff9b0e" stroke="none" /><path d="M 81.99639281039703 110.81064883170644 l -32.05698583971325 19.249298924732244 a58.3923234129851,58.3923234129851 0 0,0 -0.5086424323257108,-0.8637860499461187 l 32.38270198216873 -18.696161706492568" fill="#46ff2d" stroke="none" /><line stroke="#e1ed5e" stroke-width="0.3" x1="26.387840678322732" x2="22.057713659400548" y1="142.50000000000003" y2="145.00000000000006" /><path d="M 25.521815274538298 143.00000000000003 a86.0,86.0 0 0,1 -11.493303480769221,-40.785679425670985" fill="none" id="id57" stroke="none" /><text fill="#e1ed5e" style="font-size:6.75px; font-family:Arial;" text-anchor="middle"><textPath startOffset="21.40746469413373" xlink:href="#id57">September</textPath></text><path d="M 81.4637452351635 109.86951160357371 l -5.1901458642908045 2.763460336606464 a26.879993803110004,26.879993803110004 0 0,0 -0.21336562252294308,-0.4091567144996093 l 5.2368195557886965 -2.673957379002352" fill="#ff3505" stroke="none" /><path d="M 81.29705330413844 109.54985784667822 l -4.269993530664039 2.1802891216655307 a25.794424408202282,25.794424408202282 0 0,0 -0.19797845546511111,-0.39608953143987524 l 4.306791899340888 -2.1066677340619027" fill="#ff2503" stroke="none" /><path d="M 81.1358732173502 109.22738970284198 l -5.375157532159999 2.629258901558316 a26.983754746558386,26.983754746558386 0 0,0 -0.1999634255565316,-0.4178466519486751 l 5.419500215676443 -2.5365997475445363" fill="#ff3705" stroke="none" /><path d="M 80.9802524753101 108.90220220490708 l -8.015085829084883 3.7514648734204084 a29.849581320271852,29.849581320271852 0 0,0 -0.21323337693395733,-0.4659534110982727 l 8.078303670873897 -3.613322480107447" fill="#ff5f08" stroke="none" /><path d="M 80.83023694016515 108.57439118712176 l -22.10034302988747 9.885202332253954 a45.21037767545758,45.21037767545758 0 0,0 -0.3108022246453593,-0.7111763136172764 l 22.266779136549797 -9.504363948860828" fill="#d7ff1c" stroke="none" /><path d="M 80.5471966667186 107.91128576633889 l -14.68080428819294 5.970555298057195 a36.84845560663193,36.84845560663193 0 0,0 -0.23327059589512333,-0.5879942852873075 l 14.781133559054188 -5.717659995556322" fill="#ffbe11" stroke="none" /><path d="M 80.41425534168474 107.57618678355246 l -5.399568854778793 2.0886692289786777 a26.78946309821382,26.78946309821382 0 0,0 -0.1622284620561073,-0.43033026950456943 l 5.434628000649337 -1.9956706792799632" fill="#ff3404" stroke="none" /><path d="M 80.28708602549918 107.23885506374661 l -15.908482696366084 5.841815201551448 a37.947171638643916,37.947171638643916 0 0,0 -0.2192982046371012,-0.6134161083587103 l 16.00642107104713 -5.567864136811816" fill="#ffcd13" stroke="none" /><path d="M 80.16572619554312 106.89939002012753 l -16.49727019973005 5.738606943592181 a38.46686960207654,38.46686960207654 0 0,0 -0.21159448692926622,-0.6255415027299958 l 16.593350108231682 -5.4545637663880235" fill="#ffd313" stroke="none" /><path d="M 80.05021161711548 106.5578916946017 l -15.474610672911588 5.0868118930095925 a37.28923665225148,37.28923665225148 0 0,0 -0.1946769551818475,-0.6098227893520525 l 15.55965234387069 -4.820420069966149" fill="#ffc412" stroke="none" /><path d="M 79.94057633289273 106.21446072829308 l -17.436479577349516 5.4018659444740225 a39.25406737506452,39.25406737506452 0 0,0 -0.19388458680795967,-0.6453787319393322 l 17.526640484161106 -5.101749608943967" fill="#ffdd14" stroke="none" /><path d="M 79.83685265289637 105.86919833188381 l -23.371872335992045 6.803211411690168 a45.34190013129751,45.34190013129751 0 0,0 -0.21112377938296636,-0.7492038124162835 l 23.485214607449585 -6.400999675370889" fill="#d6ff1c" stroke="none" /><path d="M 79.73907114497094 105.5222062557868 l -20.300144958432014 5.532894779155543 a42.04064661483956,42.04064661483956 0 0,0 -0.18379874252443718,-0.6979137627955528 l 20.392133181761185 -5.183600511987188" fill="#feff18" stroke="none" /><path d="M 79.64726062577567 105.17358676015961 l -17.407128937975855 4.424824105985253 a38.96071285423339,38.96071285423339 0 0,0 -0.15920548279572402,-0.6496126988107698 l 17.480521947287873 -4.1253555825663835" fill="#ffda14" stroke="none" /><path d="M 79.56144815229197 104.8234425847677 l -5.787170462515427 1.3657564715054404 a26.946144355939403,26.946144355939403 0 0,0 -0.1023814115477693,-0.4511113899176659 l 5.809762735620863 -1.2662107476487483" fill="#ff3605" stroke="none" /><path d="M 79.48165901384964 104.47187691870673 l -20.020568240989647 4.363389665699871 a41.49054225897547,41.49054225897547 0 0,0 -0.14569559834834278,-0.6972061804971411 l 20.092521550162356 -4.01906703391732" fill="#fff917" stroke="none" /><path d="M 79.407916724674 104.11899336999214 l -13.934805725294085 2.7873514120540657 a35.210845805087345,35.210845805087345 0 0,0 -0.11346897559578678,-0.5937176277423288 l 13.980600993172027 -2.5477312192784223" fill="#ffa90f" stroke="none" /><path d="M 79.34024301695615 103.76489593502545 l -29.273137916053237 5.334540867835068 a50.75523365263456,50.75523365263456 0 0,0 -0.14884620608198998,-0.8585053623409044 l 29.360398939627462 -4.831242472573572" fill="#97ff23" stroke="none" /><path d="M 79.2786578344484 103.40968896794605 l -37.613626660993106 6.189307953402806 a59.11944967512814,59.11944967512814 0 0,0 -0.15618375493251874,-1.0028117453328353 l 37.7143319080639 -5.542708026138521" fill="#3eff2d" stroke="none" /><path d="M 79.22317932658666 103.0534771498775 l -8.309972264776142 1.221279753310835 a29.399235874601672,29.399235874601672 0 0,0 -0.06909588092849069,-0.49994337432398755 l 8.329712662259846 -1.0784480707867619" fill="#ff5908" stroke="none" /><path d="M 79.17382384314188 102.69636545807758 l -21.150726039793422 2.7383849381385765 a42.32725870991909,42.32725870991909 0 0,0 -0.087109324561442,-0.7213901681323412 l 21.194617450614526 -2.374901093082836" fill="#faff18" stroke="none" /><path d="M 79.13060592940153 102.33845913500099 l -24.927389527905987 2.7931659901608223 a46.08339141592596,46.08339141592596 0 0,0 -0.08134290791044298,-0.7869188456960299 l 24.971664828298096 -2.364842622181861" fill="#cdff1d" stroke="none" /><path d="M 79.0935383218832 101.97986365728391 l -22.60034968611327 2.1402766127699 a43.7014666908059,43.7014666908059 0 0,0 -0.06431685800991238,-0.7474593825786218 l 22.63376016682092 -1.7519961828156163" fill="#e9ff1a" stroke="none" /><path d="M 79.06263194458094 101.62068470465958 l -11.379296245152618 0.8808294970740467 a32.41333621855854,32.41333621855854 0 0,0 -0.038179883022477816,-0.5551271198143224 l 11.392740089340162 -0.685358953105381" fill="#ff830c" stroke="none" /><path d="M 79.03789590574601 101.26102812881392 l -33.26342205446127 2.0010448704327795 a54.32355664311218,54.32355664311218 0 0,0 -0.048007565064857365,-0.9313339369341552 l 33.2928712089827 -1.4297391401218933" fill="#70ff27" stroke="none" /><path d="M 79.00696218219943 100.54070618675478 l -30.203876690494145 0.7779447230205283 a51.213893577734254,51.213893577734254 0 0,0 -0.015092413500211763,-0.879057423110812 l 30.212780535593023 -0.25934038394066383" fill="#92ff23" stroke="none" /><line stroke="#e1ed5e" stroke-width="0.3" x1="15.003131293944662" x2="10.003315487706104" y1="100.72959589197737" y2="100.7725132973878" /><path d="M 14.003168132696942 100.73817937305945 a86.0,86.0 0 0,1 10.791469493833604,-42.45332614584628" fill="none" id="id58" stroke="none" /><text fill="#e1ed5e" style="font-size:6.75px; font-family:Arial;" text-anchor="middle"><textPath startOffset="22.145653131862435" xlink:href="#id58">October</textPath></text><path d="M 79.00077361379809 100.18025310272382 l -42.488639767215446 0.36471387124945154 a63.49020505335416,63.49020505335416 0 0,0 0.0,-1.0899339479465227 l 42.488639767215446 0.36471387124943594" fill="#33ff52" stroke="none" /><path d="M 79.00696218219943 99.45929381324524 l -15.056076327893745 -0.3877911186270122 a36.06106956172265,36.06106956172265 0 0,0 0.02125081062165077,-0.6186941645812141 l 15.047200830275244 0.6461915477723649" fill="#ffb410" stroke="none" /><path d="M 79.01933749520258 99.09900007780938 l -6.429442236924584 -0.27610791384083067 a27.435368136947204,27.435368136947204 0 0,0 0.024245563109314056,-0.4703574470664191 l 6.4237550843586995 0.3864371542839617" fill="#ff3d05" stroke="none" /><path d="M 79.03789590574601 98.7389718711861 l -24.05606506415424 -1.4471531377802604 a45.09955432316144,45.09955432316144 0 0,0 0.05312306319885897,-0.7723976800016311 l 24.027678039790317 1.8598942419362166" fill="#d8ff1c" stroke="none" /><path d="M 79.06263194458094 98.37931529534042 l -37.018993137013695 -2.8655041932802985 a58.12973157942263,58.12973157942263 0 0,0 0.08555140079393105,-0.9942369573823734 l 36.96434811352202 3.5005621980383523" fill="#48ff2c" stroke="none" /><path d="M 79.0935383218832 98.0201363427161 l -5.732849294951272 -0.542906788652822 a26.758498833879244,26.758498833879244 0 0,0 0.0472320729787664,-0.45692746058700234 l 5.7226848294908415 0.6412387715227372" fill="#ff3304" stroke="none" /><path d="M 79.13060592940154 97.66154086499901 l -24.049593218361196 -2.6948070827684507 a45.200101635777976,45.200101635777976 0 0,0 0.09302162350234655,-0.7703524847213461 l 23.999789508599182 3.1072532444132333" fill="#d7ff1c" stroke="none" /><path d="M 79.17382384314186 97.30363454192245 l -14.540420268552237 -1.8825485131193547 a35.66178060435951,35.66178060435951 0 0,0 0.08381449629667974,-0.6064399430581362 l 14.50596125570035 2.131876764377558" fill="#ffaf10" stroke="none" /><path d="M 79.22317932658666 96.9465228501225 l -24.00434387132242 -3.527811914104716 a45.262192431723754,45.262192431723754 0 0,0 0.11957518565060164,-0.7677584693272802 l 23.94024719353355 3.939358565363446" fill="#d7ff1c" stroke="none" /><path d="M 79.2786578344484 96.59031103205396 l -5.940306943759746 -0.977475247043761 a27.02019139601587,27.02019139601587 0 0,0 0.07924016278659035,-0.4570362016992331 l 5.922651963480922 1.0793044816635868" fill="#ff3705" stroke="none" /><path d="M 79.34024301695615 96.23510406497455 l -30.093649120432477 -5.484065341939259 a51.58925775592415,51.58925775592415 0 0,0 0.16624935003594096,-0.8698868496765679 l 29.995073478114378 5.999854756649142" fill="#8eff24" stroke="none" /><path d="M 79.407916724674 95.88100663000787 l -30.84366483325263 -6.16959679386377 a52.4546591929539,52.4546591929539 0 0,0 0.1841965069912425,-0.8814469658392385 l 30.73321061543702 6.6981602109884175" fill="#84ff25" stroke="none" /><path d="M 79.48165901384962 95.52812308129327 l -14.548190481612526 -3.170710403320866 a35.88970284293842,35.88970284293842 0 0,0 0.13636230803759974,-0.6008374897480341 l 14.491617312017265 3.4199822270079085" fill="#ffb210" stroke="none" /><path d="M 79.56144815229197 95.17655741523228 l -23.74041982916787 -5.602674437871847 a45.39257047795352,45.39257047795352 0 0,0 0.18548803573792627,-0.7568544837581399 l 23.640744266913646 6.009384746238104" fill="#d5ff1c" stroke="none" /><path d="M 79.64726062577567 94.8264132398404 l -5.691848664757059 -1.4468456727801773 a26.87286162133414,26.87286162133414 0 0,0 0.11748625608178334,-0.44611445068997435 l 5.666172927870551 1.5443406278429361" fill="#ff3505" stroke="none" /><path d="M 79.73907114497095 94.47779374421319 l -6.167622199263 -1.6810128566068108 a27.39260258556084,27.39260258556084 0 0,0 0.12754714222942104,-0.4526198114696879 l 6.137856564958996 1.7866405919795119" fill="#ff3c05" stroke="none" /><path d="M 79.83685265289637 94.1308016681162 l -37.53367888675842 -10.925506902238105 a60.09147927419922,60.09147927419922 0 0,0 0.29680520794026477,-0.987968006570876 l 37.34059735881453 11.568212512399704" fill="#34ff2f" stroke="none" /><path d="M 79.94057633289273 93.78553927170692 l -29.120632771549214 -9.021646471258471 a51.48608466280635,51.48608466280635 0 0,0 0.26879483454871306,-0.8419959908187811 l 28.961473221223244 9.520211495768644" fill="#8fff24" stroke="none" /><path d="M 80.16572619554312 93.10060997987247 l -22.46025525424778 -7.812842682238909 a44.78031910768607,44.78031910768607 0 0,0 0.25878723391841624,-0.7238739513889003 l 22.32282785028542 8.197251590008731" fill="#dcff1b" stroke="none" /><path d="M 80.28708602549916 92.7611449362534 l -21.182036480339914 -7.7783371973577795 a43.56504374049052,43.56504374049052 0 0,0 0.2638160391463032,-0.6998033870665223 l 21.045389757379173 8.140808864618446" fill="#ebff1a" stroke="none" /><path d="M 80.41425534168474 92.42381321644754 l -5.938486397962351 -2.297134111949484 a27.367295016493724,27.367295016493724 0 0,0 0.173249736289784,-0.43670251055442055 l 5.898177986706436 2.3987376397174875" fill="#ff3c05" stroke="none" /><path d="M 80.5471966667186 92.08871423366112 l -31.769787534314442 -12.920496013539593 a55.29662690719561,55.29662690719561 0 0,0 0.3651530017303232,-0.8762342748700082 l 31.54330868804764 13.463962797850865" fill="#66ff29" stroke="none" /><path d="M 80.68587082218212 91.75594674310238 l -5.823401237189633 -2.485663707313921 a27.33170798719898,27.33170798719898 0 0,0 0.18789393237892815,-0.4299380879038914 l 5.779873422793727 2.585263864993679" fill="#ff3c05" stroke="none" /><path d="M 80.83023694016515 91.42560881287825 l -16.885909507599752 -7.5528525426514 a39.49809507570667,39.49809507570667 0 0,0 0.2821584699994466,-0.6165671784451943 l 16.75376657274526 7.841608703311265" fill="#ffe015" stroke="none" /><path d="M 80.9802524753101 91.09779779509293 l -23.493625368341554 -10.996202935071336 a46.93967833141447,46.93967833141447 0 0,0 0.34784702728848044,-0.7268665024029674 l 23.30139908309317 11.397881939539392" fill="#c3ff1e" stroke="none" /><path d="M 81.1358732173502 90.77261029715801 l -11.330785577096503 -5.542455018663965 a33.61370324005014,33.61370324005014 0 0,0 0.2579933145479031,-0.5161594519657539 l 11.233972349336854 5.736146326793489" fill="#ff930d" stroke="none" /><path d="M 81.29705330413844 90.45014215332179 l -5.133006245353183 -2.6209495629948534 a26.76343037839425,26.76343037839425 0 0,0 0.212440375744252,-0.40738243180310646 l 5.087257800633991 2.7086782379024466" fill="#ff3304" stroke="none" /><path d="M 81.46374523516351 90.13048839642627 l -23.969899545568136 -12.76262139805393 a48.15585736401434,48.15585736401434 0 0,0 0.3947740375464253,-0.7263397647589136 l 23.74728015840636 13.172215996287465" fill="#b5ff20" stroke="none" /><path d="M 81.63589988554816 89.8137432299009 l -21.176366942472686 -11.746173773258375 a45.215926891073835,45.215926891073835 0 0,0 0.3823257135946559,-0.6755329021794394 l 20.97160786385666 12.107963445536921" fill="#d7ff1c" stroke="none" /><line stroke="#e1ed5e" stroke-width="0.3" x1="26.387840678322718" x2="22.05771365940052" y1="57.49999999999999" y2="54.99999999999999" /><path d="M 25.521815274538284 56.99999999999999 a86.0,86.0 0 0,1 29.574782752854787,-30.34633250058573" fill="none" id="id59" stroke="none" /><text fill="#e1ed5e" style="font-size:6.75px; font-family:Arial;" text-anchor="middle"><textPath startOffset="21.40746469413373" xlink:href="#id59">November</textPath></text><path d="M 81.81346652052679 89.5 l -5.498359248641676 -3.174479192304541 a27.34895838460908,27.34895838460908 0 0,0 0.2382306423386477,-0.4045677128841194 l 5.443054896173249 3.268398073482233" fill="#ff3c05" stroke="none" /><path d="M 81.99639281039701 89.18935116829357 l -26.690522349507674 -16.02689178988371 a52.13270376524034,52.13270376524034 0 0,0 0.4672878546750089,-0.7632795925659852 l 26.41146653037727 16.482708498574237" fill="#88ff25" stroke="none" /><path d="M 82.37810715431573 88.57770195909679 l -17.07909078494273 -11.070460303078994 a41.35314308313002,41.35314308313002 0 0,0 0.3912313764015348,-0.5923741682537804 l 16.886534969620463 11.362014349671835" fill="#fff817" stroke="none" /><path d="M 82.576782715395 88.27688183743585 l -12.984570273091624 -8.736598362695672 a36.650150674287815,36.650150674287815 0 0,0 0.3556988978421438,-0.5189753221420353 l 12.832681638434165 8.958208419907741" fill="#ffbc11" stroke="none" /><path d="M 82.78059297857968 87.97951657250589 l -4.70566630840292 -3.2849205437278237 a26.73881506799474,26.73881506799474 0 0,0 0.26596832147158916,-0.3741177522752133 l 4.648582888401358 3.3652155227125573" fill="#ff3304" stroke="none" /><path d="M 82.98947788004972 87.6856937992154 l -19.07308571256264 -13.807443181467299 a44.54629664741802,44.54629664741802 0 0,0 0.45373156609061044,-0.6155740110722997 l 18.833252126888212 14.132823501808463" fill="#dfff1b" stroke="none" /><path d="M 83.2033758604659 87.39550010848427 l -4.817731269377209 -3.615315360858063 a27.023374448130483,27.023374448130483 0 0,0 0.281619622056548,-0.3686491253833354 l 4.754959669966354 3.6974853994822823" fill="#ff3705" stroke="none" /><path d="M 83.42222388311158 87.10902102172516 l -35.24920888676203 -27.40999803328005 a65.65215246017821,65.65215246017821 0 0,0 0.6994566859990501,-0.8837406733126174 l 34.77348577012142 28.011058650507348" fill="#36ff6c" stroke="none" /><path d="M 83.8745106332314 86.54754324733833 l -19.986401267765284 -16.673366778563274 a47.02801174443847,47.02801174443847 0 0,0 0.5224709908299411,-0.6154695134630506 l 19.697235713428228 17.01400307447588" fill="#c2ff1e" stroke="none" /><path d="M 84.10781606972428 86.27271002978789 l -17.00210746298469 -14.686015482395005 a43.46665771609176,43.46665771609176 0 0,0 0.4925992201489863,-0.560487487337922 l 16.747497178877108 14.975715247544228" fill="#ecff1a" stroke="none" /><path d="M 84.34580500576568 86.00192230759919 l -4.502962087773637 -4.0265764655293195 a27.040694132025003,27.040694132025003 0 0,0 0.3123873603457682,-0.3433684312309335 l 4.433177026586003 4.103282472317911" fill="#ff3705" stroke="none" /><path d="M 84.58840730492382 85.73525988315684 l -4.3022053967481595 -3.9820570870329033 a26.862230797247577,26.862230797247577 0 0,0 0.3161354111604571,-0.3357248513180566 l 4.23321415185143 4.055323398295471" fill="#ff3505" stroke="none" /><path d="M 84.83555147118756 85.47280134310135 l -12.111781141870441 -11.60281235433819 a37.77261151277735,37.77261151277735 0 0,0 0.45257560055323504,-0.4643824359019197 l 11.910818740166404 11.809017482307839" fill="#ffca12" stroke="none" /><path d="M 85.08716467003674 85.21462403516908 l -17.445697577523728 -17.29658994719577 a45.56673335565498,45.56673335565498 0 0,0 0.5554977101109803,-0.550749894964053 l 17.14620794728277 17.593519852388496" fill="#d3ff1c" stroke="none" /><path d="M 85.34317274990677 84.96080404539775 l -17.466264521092153 -17.921926092562153 a46.02530381809625,46.02530381809625 0 0,0 0.5705549014409187,-0.5465786891063813 l 17.156037133785933 18.219116911974105" fill="#cdff1d" stroke="none" /><path d="M 85.60350026404147 84.71141617570332 l -2.0485652577659144 -2.175505312910759 a23.988217358531415,23.988217358531415 0 0,0 0.3022175310627263,-0.27972803490589926 l 2.010917955389235 2.2103510939490234" fill="#ff0b01" stroke="none" /><path d="M 85.86807049272753 84.46653392183569 l -17.84258566056711 -19.61212720191757 a47.51402263782073,47.51402263782073 0 0,0 0.6080323618613097,-0.543706287289981 l 17.50328827188241 19.91552901909095" fill="#bcff1f" stroke="none" /><path d="M 86.13680546590413 84.22622945171909 l -14.57258702898927 -16.58092898608543 a43.07458943579867,43.07458943579867 0 0,0 0.5596015189941095,-0.48337046391521643 l 14.285806030232312 16.828643582465357" fill="#f1ff19" stroke="none" /><path d="M 86.40962598614128 83.9905735841838 l -14.991258045887836 -17.659664283073703 a44.16466188808431,44.16466188808431 0 0,0 0.5821862825563381,-0.4856805030811588 l 14.685897429169588 17.914406970066743" fill="#e4ff1a" stroke="none" /><path d="M 86.68645165197937 83.75963576809568 l -15.404827470679757 -18.791384724319546 a45.29865941279065,45.29865941279065 0 0,0 0.60559827305148,-0.48782710071782454 l 15.079978427273032 19.053060118830768" fill="#d6ff1c" stroke="none" /><path d="M 86.96720088162412 83.53348406188908 l -13.23260767126003 -16.718967517449602 a42.321955366031155,42.321955366031155 0 0,0 0.5735432200363577,-0.44599067694542527 l 12.943654506588427 16.943659246015834" fill="#faff18" stroke="none" /><path d="M 87.25179093698888 83.31218511350988 l -3.9233660463183204 -5.13581209637271 a27.462922483107135,27.462922483107135 0 0,0 0.3770881720847448,-0.2829739943365744 l 3.834624885322823 5.202405117973285" fill="#ff3d05" stroke="none" /><path d="M 87.54013794807813 83.09580414077388 l -12.533566080050008 -17.004189528650382 a42.124221647418004,42.124221647418004 0 0,0 0.5857653640124779,-0.42404895060826653 l 12.239819705663562 17.21683925063173" fill="#fdff18" stroke="none" /><path d="M 87.83215693770416 82.88440491214696 l -20.212878209813564 -28.431944530190336 a55.8846085730165,55.8846085730165 0 0,0 0.7866554581912547,-0.5491466045592007 l 19.721827660448543 28.774735950554664" fill="#5fff29" stroke="none" /><path d="M 88.12776184653039 82.6780497279521 l -13.287785393822928 -19.387275999865203 a44.503865881323506,44.503865881323506 0 0,0 0.6338700704351243,-0.42649607211119234 l 12.953019035290813 19.612521746033504" fill="#e0ff1b" stroke="none" /><path d="M 88.4268655584334 82.4767994020092 l -3.091275889918808 -4.680585695801112 a26.609266358743476,26.609266358743476 0 0,0 0.38331835183903196,-0.24846232454111872 l 3.01047190582275 4.732961862046136" fill="#ff3104" stroke="none" /><path d="M 88.72937992617638 82.28071324371311 l -17.196673925298278 -27.036027702187138 a53.04172885483029,53.04172885483029 0 0,0 0.7724792073722669,-0.4820841577154519 l 16.730030589136312 27.327247656744124" fill="#7eff26" stroke="none" /><path d="M 89.03521579738668 82.08984904055464 l -13.236840030518877 -21.6213834027047 a46.35149215017336,46.35149215017336 0 0,0 0.6821775194430383,-0.4096279998733916 l 12.863729754518406 21.845425403114017" fill="#caff1d" stroke="none" /><line stroke="#e1ed5e" stroke-width="0.3" x1="56.869717070023135" x2="54.33264160355391" y1="26.7553504044142" y2="22.446841604673864" /><path d="M 56.362301976729285 25.89364864446614 a86.0,86.0 0 0,1 42.16139366436587,-11.88097634709845" fill="none" id="id60" stroke="none" /><text fill="#e1ed5e" style="font-size:6.75px; font-family:Arial;" text-anchor="middle"><textPath startOffset="22.145653131862474" xlink:href="#id60">December</textPath></text><path d="M 89.34428304082924 81.90426304109057 l -18.513944052598536 -31.44072453608611 a57.48678231547413,57.48678231547413 0 0,0 0.8546574493981236,-0.49343670847492294 l 17.971494135340013 31.753908141837204" fill="#4fff2b" stroke="none" /><path d="M 89.65649057296885 81.72400993836675 l -6.274917334048956 -11.087177678298408 a33.739705507558114,33.739705507558114 0 0,0 0.5065065833885357,-0.28095066363099586 l 6.083666562504318 11.19326125736255" fill="#ff950d" stroke="none" /><path d="M 89.97174638481275 81.54914285379989 l -9.196305558896851 -16.920166426888212 a40.257831338086646,40.257831338086646 0 0,0 0.6100234373313054,-0.32480312067216494 l 8.904493305778983 17.075540015282954" fill="#ffea16" stroke="none" /><path d="M 90.28995756902619 81.37971332152246 l -11.466397385124063 -21.988328887141904 a45.79848536186634,45.79848536186634 0 0,0 0.7002212826878218,-0.35753797621457617 l 11.087248880722658 22.181924815029316" fill="#d0ff1d" stroke="none" /><path d="M 90.61103034731259 81.2157712731953 l -2.7256698676194966 -5.453165589098402 a27.096416256242335,27.096416256242335 0 0,0 0.41785222315777004,-0.20439246118839202 l 2.6316573951996736 5.499151800384009" fill="#ff3805" stroke="none" /><path d="M 90.93487009805054 81.0573650232925 l -9.928135050727446 -20.745983819265728 a43.99921107809392,43.99921107809392 0 0,0 0.6841066189403238,-0.3201964402322585 l 9.570539717915599 20.913356491068527" fill="#e6ff1a" stroke="none" /><path d="M 91.26138138417902 80.90454125486306 l -12.789118060625556 -27.94653103079927 a51.7338597872777,51.7338597872777 0 0,0 0.810710470216179,-0.3626204815068214 l 12.307494187553758 28.161955263215937" fill="#8cff24" stroke="none" /><path d="M 91.5904679813234 80.7573450057729 l -15.47605472982016 -35.41224186748153 a59.64628240958502,59.64628240958502 0 0,0 0.9417435782617758,-0.4019743340252693 l 14.865876076387952 35.6726908511662" fill="#39ff2e" stroke="none" /><path d="M 91.92203290615298 80.6158196554323 l -2.2539102489055938 -5.408564090157564 a26.85940926437671,26.85940926437671 0 0,0 0.4271228523285116,-0.17370714565974288 l 2.1607329353866414 5.446458492396599" fill="#ff3505" stroke="none" /><path d="M 92.25597844496254 80.48000691201159 l -7.982221371496443 -20.12041222910181 a42.64594295226161,42.64594295226161 0 0,0 0.6827975672699494,-0.2641207671823755 l 7.6356515417329645 20.254472884422228" fill="#f6ff19" stroke="none" /><path d="M 92.592206182469 80.34994680014964 l -9.798138644859177 -25.990726844387762 a48.77627409865228,48.77627409865228 0 0,0 0.7860200141369404,-0.28863743670273273 l 9.350529479068111 26.155095130099216" fill="#adff20" stroke="none" /><path d="M 92.93061703081487 80.22567764915836 l -6.674538636886304 -18.669872480278226 a40.82709268766196,40.82709268766196 0 0,0 0.6619709240158337,-0.23026785007591963 l 6.353061940825466 18.781698762922733" fill="#fff116" stroke="none" /><path d="M 93.27111125876988 80.10723608172694 l -1.715640544316613 -5.07198641992536 a26.354294418614863,26.354294418614863 0 0,0 0.42979745731962427,-0.14128296108320584 l 1.6283203493492275 5.1006903024105945" fill="#ff2d04" stroke="none" /><path d="M 93.61358852112211 79.99465700312896 l -14.88922082342881 -46.64027216442109 a69.95920632833113,69.95920632833113 0 0,0 1.1471956198108635,-0.3554041354974061 l 14.086384570746329 46.888992887725145" fill="#3bff9d" stroke="none" /><path d="M 93.95794788825049 79.88797359093562 l -4.3952033824624035 -14.630202597788807 a36.27614613786983,36.27614613786983 0 0,0 0.5979345130954595,-0.17405002237112616 l 4.143408856985319 14.703496314462454" fill="#ffb710" stroke="none" /><path d="M 94.30408787586887 79.78721728523814 l -1.5202625945762922 -5.3948756272706975 a26.604987189118923,26.604987189118923 0 0,0 0.44065282725096155,-0.12010188756333176 l 1.427428366390653 5.420178008978169" fill="#ff3104" stroke="none" /><path d="M 94.6519064749342 79.69241777938228 l -9.301161704856321 -35.3180259812877 a57.522247579725956,57.522247579725956 0 0,0 0.9570461345778836,-0.24327738490990305 l 8.693510277053061 35.47248859803286" fill="#4eff2b" stroke="none" /><path d="M 95.00130118170881 79.60360301121753 l -6.052868794150196 -24.69777022667357 a46.42866639855029,46.42866639855029 0 0,0 0.7757298182851303,-0.18307012491250318 l 5.628006822125161 24.798036495232303" fill="#c9ff1d" stroke="none" /><path d="M 95.35216902796891 79.52079915486377 l -1.4024583568701188 -6.1794902913028675 a27.336638675438362,27.336638675438362 0 0,0 0.458523406894893,-0.09993304241137715 l 1.2961725333561074 6.202654791847959" fill="#ff3c05" stroke="none" /><path d="M 95.70440661134978 79.44403061299748 l -4.292989713308246 -20.54350985795013 a41.98727133198274,41.98727133198274 0 0,0 0.7067927608962079,-0.14137834706497351 l 3.9397004668810607 20.61417760167797" fill="#feff18" stroke="none" /><path d="M 96.05791012581881 79.37332000966035 l -8.792978162266841 -46.00857730388387 a67.84128147787547,67.84128147787547 0 0,0 1.1457593415042713,-0.2087955192738861 l 8.001884087211533 46.15274099708912" fill="#39ff85" stroke="none" /><path d="M 96.41257539226777 79.30868818359171 l -7.1652838173372455 -41.327452958324486 a62.94400624887325,62.94400624887325 0 0,0 1.0662190033662942,-0.17544593126000985 l 6.454787310917878 41.444364888080166" fill="#32ff4c" stroke="none" /><path d="M 96.76829788921471 79.25015418208739 l -1.212364694791055 -7.784251032308828 a28.878095727215864,28.878095727215864 0 0,0 0.49048055922647066,-0.07208375158060562 l 1.0785590299568992 7.8039158571883185" fill="#ff5207" stroke="none" /><path d="M 97.12497278360702 79.19773525538626 l -2.909693471487791 -21.053092497504103 a42.25321198799095,42.25321198799095 0 0,0 0.7193552562884066,-0.09313493992049755 l 2.5478603933085906 21.099939033624995" fill="#fbff18" stroke="none" /><path d="M 97.48249496171623 79.15144685158666 l -0.6896392366803754 -5.7112021864964 a26.752689170449795,26.752689170449795 0 0,0 0.4564060983526313,-0.05114125529243351 l 0.5914972367269449 5.722199202295805" fill="#ff3304" stroke="none" /><path d="M 97.84075906011542 79.11130261209362 l -0.5822792383489095 -5.633023429882336 a26.663038236937442,26.663038236937442 0 0,0 0.45568457451042255,-0.04315380297960312 l 0.48549510045347144 5.642188988367122" fill="#ff3204" stroke="none" /><path d="M 98.1996594967304 79.07731436759882 l -0.2405327904611791 -2.7953556285401584 a23.80568514151146,23.80568514151146 0 0,0 0.40745244478467335,-0.03153939613569148 l 0.19251135090128854 2.7990727916709037" fill="#ff0801" stroke="none" /><path d="M 98.5590905019552 79.04949213459386 l -1.8227017514935124 -26.501683438668568 a47.56428931400758,47.56428931400758 0 0,0 0.8150608641166751,-0.049032037610585846 l 1.3674965352443536 26.52906745410385" fill="#bbff1f" stroke="none" /><path d="M 98.9189461498227 79.02784411241856 l -1.2257641779251722 -23.77949758621541 a44.811068923353886,44.811068923353886 0 0,0 0.768561555530153,-0.03300534011130739 l 0.8173768617941991 23.797035494752546" fill="#dcff1b" stroke="none" /><path d="M 99.27912038922189 79.0123766808444 l -0.19516416830343697 -5.681991817368215 a26.68534256357776,26.68534256357776 0 0,0 0.4579543890178432,-0.011795280585047658 l 0.09759646521484985 5.684504815303308" fill="#ff3204" stroke="none" /><path d="M 99.63950707515114 79.00309439819443 l -0.2218281644367981 -12.920378480254701 a33.92228260825332,33.92228260825332 0 0,0 0.5823210892856471,-0.004998526193051898 l 3.1650464067749874e-15 12.922282608253319" fill="#ff970e" stroke="none" /></svg>