<?xml version="1.0" encoding="utf-8" ?>
<svg baseProfile="full" height="200mm" version="1.1" viewBox="0,0,200,200" width="200mm" xmlns="http://www.w3.org/2000/svg" xmlns:ev="http://www.w3.org/2001/xml-events" xmlns:xlink="http://www.w3.org/1999/xlink"><defs /><rect fill="#1a1a1a" height="200" width="200" x="0" y="0" /><text alignment-baseline="middle" fill="#e1ed5e" style="dominant-baseline: central; font-size:9.0px; font-family:Arial;" text-anchor="middle" x="100.0" y="100.0">2025</text><line stroke="#e1ed5e" stroke-width="0.3" x1="100.0" x2="100.0" y1="15.0" y2="10.0" /><path d="M 100.0 14.0 a86.0,86.0 0 0,1 42.46469731375804,11.215312516191453" fill="none" id="id61" stroke="none" /><text fill="#e1ed5e" style="font-size:6.75px; font-family:Arial;" text-anchor="middle"><textPath startOffset="22.20632615414155" xlink:href="#id61">January</textPath></text><path d="M 100.0 79.0 l 0.0 -50.05962131343122 a71.05962131343122,71.05962131343122 0 0,0 1.2231745699668328,0.010528249693698151 l -0.8616940906943045 50.05220444034608" fill="#3cffa8" stroke="none" /><path d="M 100.36148047927253 79.00311137660856 l 0.10229579452381925 -5.941934703031704 a26.942815195231105,26.942815195231105 0 0,0 0.46363884687731,0.011974423547003952 l -0.20456127659599702 5.939293487342341" fill="#ff2e04" stroke="none" /><path d="M 100.72285384407766 79.0124445844662 l 1.0320425433606262 -29.964632888695707 a50.98240043701656,50.98240043701656 0 0,0 0.8767981573631752,0.03775677304997589 l -1.547681533113133 29.942428389121538" fill="#98ff23" stroke="none" /><path d="M 101.08401301168833 79.027996857942 l 1.2518126622757122 -24.21836159108981 a45.2506922189493,45.2506922189493 0 0,0 0.7775317651845228,0.04690283942307807 l -1.668506476299847 24.19322548228643" fill="#dbff1b" stroke="none" /><path d="M 101.44485096284872 79.0497635885617 l 1.1907580603541097 -17.265907359786524 a38.30691947502584,38.30691947502584 0 0,0 0.6574375997193386,0.051029810889592866 l -1.4877858494357894 17.24285228670847" fill="#ffcb12" stroke="none" /><path d="M 101.80526077348638 79.07773832637324 l 0.5856355158009253 -6.787285076434312 a27.81250377366173,27.81250377366173 0 0,0 0.4766200600404104,0.04526081772068766 l -0.70238070293158 6.776198714198446" fill="#ff3a05" stroke="none" /><path d="M 102.16513564639614 79.11191278185805 l 3.0625547255287215 -29.54591335820288 a50.7042124557661,50.7042124557661 0 0,0 0.8673638755441954,0.09745843765719447 l -3.5706853045826423 29.488818967075083" fill="#9bff22" stroke="none" /><path d="M 102.52436894288641 79.15227682838746 l 3.86657458983506 -31.932446680754445 a53.16568901917047,53.16568901917047 0 0,0 0.9075769743859405,0.11782953890886848 l -4.415666292728846 31.861158818681442" fill="#80ff26" stroke="none" /><path d="M 102.88285421437855 79.19881850522331 l 0.9089529579040933 -6.558533328974765 a27.62122004671008,27.62122004671008 0 0,0 0.4703907184337799,0.06932336431739237 l -1.021712656766529 6.541915480496404" fill="#ff3705" stroke="none" /><path d="M 103.2404852339499 79.25152402106235 l 4.7242603470014695 -30.24892732145774 a51.61562084827095,51.61562084827095 0 0,0 0.8766564030279821,0.1446558179815317 l -5.244245956168327 30.16312524053658" fill="#91ff24" stroke="none" /><path d="M 103.59715602781102 79.31037775812273 l 5.474025017385583 -31.48473651870268 a52.95705843069874,52.95705843069874 0 0,0 0.8967518261902488,0.16387566434284626 l -6.015171964678733 31.385845373009094" fill="#82ff25" stroke="none" /><path d="M 104.307194497241 79.44645832069477 l 1.2340001509767289 -5.888536854236693 a27.01644601540763,27.01644601540763 0 0,0 0.4543359275168873,0.0993002362767177 l -1.3351788026471443 5.8664231198641055" fill="#ff2f04" stroke="none" /><path d="M 104.66035177308747 79.52364482259891 l 7.736579682218508 -33.99248836669256 a55.86178323808243,55.86178323808243 0 0,0 0.9357548641519686,0.2214629433176698 l -8.320558233333001 33.85427951123402" fill="#63ff29" stroke="none" /><path d="M 105.01212808612495 79.60689891045804 l 4.272179860546137 -17.382436017548073 a38.89973750268446,38.89973750268446 0 0,0 0.6488682037941023,0.1654109528003452 l -4.570756953025264 17.306322068578858" fill="#ffd313" stroke="none" /><path d="M 105.36241919743992 79.69619591428918 l 3.7621469856177554 -14.24467064680394 a35.73310529987859,35.73310529987859 0 0,0 0.5933432972694794,0.16218313681665375 l -4.006788172110946 14.177800969160991" fill="#ffa90f" stroke="none" /><path d="M 105.71112130821622 79.79150937346287 l 1.6232116991330514 -5.743645886075757 a26.968608236836907,26.968608236836907 0 0,0 0.44563670821747453,0.13009357529182838 l -1.721838625073953 5.714853981865224" fill="#ff2e04" stroke="none" /><path d="M 106.0581310904928 79.89281104454417 l 6.982306823140958 -23.174566634615953 a45.20357715865024,45.20357715865024 0 0,0 0.7430921924269397,0.23088236137449517 l -7.380184388278617 23.050944138358936" fill="#dcff1b" stroke="none" /><path d="M 106.40334571778207 80.00007090966166 l 6.129980466783356 -19.14611205832113 a41.10348893781712,41.10348893781712 0 0,0 0.6719778008629231,0.22154051584872392 l -6.458641089888697 19.03775781821317" fill="#ffef16" stroke="none" /><path d="M 106.74666289553966 80.11325718540242 l 1.95450437513276 -5.7611779986766205 a27.08368796741324,27.08368796741324 0 0,0 0.4401976237911008,0.15357630743379613 l -2.0533840029871344 5.7266808380706165" fill="#ff3004" stroke="none" /><path d="M 107.08798089147638 80.2323363322302 l 18.899693560601193 -52.709338731309685 a76.99529271444675,76.99529271444675 0 0,0 1.2437221010025865,0.45807334600183197 l -19.804197987376355 52.37620211750153" fill="#44ffe7" stroke="none" /><path d="M 107.4271985657038 80.35727306442388 l 2.173614938210037 -5.748563784399514 a27.145778020960364,27.145778020960364 0 0,0 0.43564686629741256,0.16902421594324765 l -2.2722449695071165 5.71029686456572" fill="#ff3104" stroke="none" /><path d="M 107.76421540070413 80.48803036053334 l 11.043040568250232 -27.75186688864352 a50.868291896206735,50.868291896206735 0 0,0 0.8107827535307955,0.3307386427077658 l -11.519107191369415 27.557667359752173" fill="#9aff23" stroke="none" /><path d="M 108.09893153111575 80.62456947434976 l 1.1100928605688252 -2.6557240315388233 a23.878398216157503,23.878398216157503 0 0,0 0.3778656935799953,0.16178236998511158 l -1.1556423119391357 2.6362221335909206" fill="#ff0000" stroke="none" /><path d="M 108.76106565485865 80.91482961587045 l 13.809451801097836 -30.082612197891258 a54.1008234896892,54.1008234896892 0 0,0 0.8429984872600393,0.3957990931442161 l -14.325228499657474 29.840448122107038" fill="#76ff27" stroke="none" /><path d="M 109.08828744355905 81.06846463323043 l 27.264862330677165 -56.79460610030869 a84.0,84.0 0 0,0 1.2981149319582728,0.6369793594606721 l -28.23844852964587 56.31687158071319" fill="#4dd2ff" stroke="none" /><path d="M 109.73455568895987 81.39251694778311 l 11.305986425401244 -21.611253509786692 a45.38998989986722,45.38998989986722 0 0,0 0.6891820532191709,0.36813718494370967 l -11.676313525148727 21.41343759834123" fill="#daff1c" stroke="none" /><path d="M 110.05341064243156 81.56283822128135 l 7.85783519170884 -14.410649660382743 a37.413786812748214,37.413786812748214 0 0,0 0.5627673328924535,0.31317941145938705 l -8.104726613673328 14.273254851363175" fill="#ffbf11" stroke="none" /><path d="M 110.36928655335952 81.73862282372117 l 1.898405575759645 -3.343286934361536 a24.84467310125944,24.84467310125944 0 0,0 0.37007118699546276,0.21436911795007024 l -1.955673495220436 3.3101136590214164" fill="#ff0f01" stroke="none" /><line stroke="#e1ed5e" stroke-width="0.3" x1="143.23703022742887" x2="145.7803849466894" y1="26.81831364943548" y2="22.513508569990506" /><path d="M 143.74570117128098 25.957352633546492 a86.0,86.0 0 0,1 28.547481713284135,27.462654790039103" fill="none" id="id62" stroke="none" /><text fill="#e1ed5e" style="font-size:6.75px; font-family:Arial;" text-anchor="middle"><textPath startOffset="19.985693538727396" xlink:href="#id62">February</textPath></text><path d="M 110.68208982089419 81.91981866633111 l 7.208756304500746 -12.201322340565369 a35.17174775093245,35.17174775093245 0 0,0 0.5185955857672941,0.31244803781918074 l -7.417713956485677 12.075427693287574" fill="#ffa10e" stroke="none" /><path d="M 110.99172775467656 82.1063720568725 l 19.71002819035319 -32.086303359968234 a58.65655420471217,58.65655420471217 0 0,0 0.8557735617220001,0.5358853258414991 l -20.25942090444745 31.74227369280379" fill="#45ff2d" stroke="none" /><path d="M 111.90073688211348 82.69761687909136 l 3.479646892193397 -5.05902989458558 a27.1401731220432,27.1401731220432 0 0,0 0.38263619655932174,0.268061108358219 l -3.56621422833637 4.998383943463425" fill="#ff3004" stroke="none" /><path d="M 112.19680574252982 82.90503203632743 l 3.4384443092936423 -4.819302410243612 a26.920183695586964,26.920183695586964 0 0,0 0.3749016098281324,0.2723819633578091 l -3.5208912354755633 4.759401212069128" fill="#ff2d04" stroke="none" /><path d="M 112.48926042617603 83.11751280151076 l 3.6068690138727453 -4.875622564944655 a27.064750570224042,27.064750570224042 0 0,0 0.37214527736772335,0.2802921075326613 l -3.6902604449988514 4.812813867906146" fill="#ff2f04" stroke="none" /><path d="M 112.77801427241765 83.33499621200491 l 3.7035287640890577 -4.830118324074732 a27.086556360619486,27.086556360619486 0 0,0 0.3675612740769436,0.2868874045773767 l -3.7861225933254317 4.7656525302741315" fill="#ff3004" stroke="none" /><path d="M 113.34407831869373 83.78471172551755 l 20.89200985996238 -25.387288235414253 a53.87841966908945,53.87841966908945 0 0,0 0.7110475205638946,0.5954818498402733 l -21.325914917485388 25.023905228180162" fill="#78ff26" stroke="none" /><path d="M 113.6212207817346 84.01681056812373 l 4.10625020135248 -4.818288747724043 a27.330655350953123,27.330655350953123 0 0,0 0.3554367363520617,0.30823123523274665 l -4.188580736351306 4.746892519071625" fill="#ff3304" stroke="none" /><path d="M 113.89432698308785 84.25364557470407 l 4.011136589438803 -4.545796170081169 a27.06246480889245,27.06246480889245 0 0,0 0.3466431277220121,0.31121962269016823 l -4.088790704756805 4.476077538621703" fill="#ff2f04" stroke="none" /><path d="M 114.16331599549186 84.49514656593476 l 4.143510831373016 -4.535980709838661 a27.143598539108325,27.143598539108325 0 0,0 0.3422576618377904,0.3180911960907451 l -4.220976377005653 4.463984927673276" fill="#ff3004" stroke="none" /><path d="M 114.42810811169701 84.74124197986012 l 4.211710010342082 -4.4541850810439945 a27.130111413947596,27.130111413947596 0 0,0 0.33656422028549227,0.32377451325516127 l -4.287757474239992 4.381027481026531" fill="#ff3004" stroke="none" /><path d="M 114.94478906791727 85.2469230424477 l 15.16385882998745 -14.969336487493226 a42.30783070825335,42.30783070825335 0 0,0 0.5071615673555414,0.5226745759202516 l -15.419284661046103 14.70609771602286" fill="#fffe18" stroke="none" /><path d="M 115.19652480421416 85.50635884689758 l 4.530390299039874 -4.320846517459804 a27.26052321208692,27.26052321208692 0 0,0 0.3209377218195527,0.3423539849015717 l -4.604095342829891 4.2422231156801775" fill="#ff3204" stroke="none" /><path d="M 115.4437574822437 85.77008943001954 l 4.16689461847717 -3.8393854503113185 a26.666029597306764,26.666029597306764 0 0,0 0.3081276981575,0.3402423002469551 l -4.232365957250706 3.7670903627948147" fill="#ff2904" stroke="none" /><path d="M 115.68641384162765 86.03803664274999 l 4.64744237920029 -4.136536295576428 a27.221708221429868,27.221708221429868 0 0,0 0.3085232401909567,0.3526953971730185 l -4.717957482969094 4.055925342200462" fill="#ff3204" stroke="none" /><path d="M 115.9244219780498 86.31012108654704 l 17.149096062425443 -14.742704563681022 a43.61501345589423,43.61501345589423 0 0,0 0.48451998723222345,0.5735188394119658 l -17.40032666314478 14.445326774639948" fill="#efff19" stroke="none" /><path d="M 116.15771136456269 86.58626213691792 l 4.789936322419792 -3.9764883008561775 a27.225427630266253,27.225427630266253 0 0,0 0.2962405365419258,0.36315586992507554 l -4.857675351038127 3.8934482613230013" fill="#ff3204" stroke="none" /><path d="M 116.38621287248628 86.86637796730983 l 13.447560680636935 -10.778279314172819 a38.233925647795346,38.233925647795346 0 0,0 0.4071838787620576,0.5170821758575183 l -13.631098639992956 10.545204744362263" fill="#ffca12" stroke="none" /><path d="M 116.82858285166822 87.43820079747576 l 4.881575032473852 -3.643881715441865 a27.091604776559592,27.091604776559592 0 0,0 0.27573756322643844,0.37610572636075584 l -4.943575208213917 3.559313545409615" fill="#ff3004" stroke="none" /><path d="M 117.04232023915458 87.72973835380427 l 15.175929283199524 -10.926483038453885 a39.70018345359995,39.70018345359995 0 0,0 0.39452034658271473,0.558021051784235 l -15.361762249586121 10.663635486337856" fill="#ffdd14" stroke="none" /><path d="M 117.2510076193507 88.02491185347247 l 4.987226189605212 -3.4619701379182914 a27.07105116945345,27.07105116945345 0 0,0 0.26242874793954984,0.3850818055946243 l -5.046079403213495 3.3756103090532608" fill="#ff2f04" stroke="none" /><path d="M 117.45458315368197 88.32363383020206 l 13.896447551397282 -9.296126332027505 a37.71912734952846,37.71912734952846 0 0,0 0.35636198940520775,0.5427637584549132 l -14.054406176160414 9.055544509594917" fill="#ffc312" stroke="none" /><path d="M 117.65298651832404 88.62581576622439 l 5.093198209654899 -3.281652921199355 a27.05887067843902,27.05887067843902 0 0,0 0.24890605199161397,0.3937095993330541 l -5.148931857892468 3.1934956741520946" fill="#ff2f04" stroke="none" /><line stroke="#e1ed5e" stroke-width="0.3" x1="172.23445277983987" x2="176.4835382374775" y1="55.19839476539836" y2="52.563006222186495" /><path d="M 173.08426987136738 54.67131705675599 a86.0,86.0 0 0,1 12.851231095245387,41.99856678651699" fill="none" id="id63" stroke="none" /><text fill="#e1ed5e" style="font-size:6.75px; font-family:Arial;" text-anchor="middle"><textPath startOffset="22.20632615414155" xlink:href="#id63">March</textPath></text><path d="M 118.03404312379186 89.2402003453031 l 10.594659851466691 -6.321179151504289 a33.33710351880427,33.33710351880427 0 0,0 0.28977932040661564,0.4953267919217301 l -10.701898846343633 6.137872947228664" fill="#ff880c" stroke="none" /><path d="M 118.21658344932153 89.55222093294921 l 2.6289086035390823 -1.5077611207203798 a24.03059466819926,24.03059466819926 0 0,0 0.20270648669858574,0.36059222123917173 l -2.654472731530101 1.4622853895464143" fill="#ff0200" stroke="none" /><path d="M 118.3937258080291 89.86733742301442 l 18.448349772444676 -10.162753609428766 a42.06236383344512,42.06236383344512 0 0,0 0.3438936760918425,0.6371827534003768 l -18.620551547754985 9.84368987269593" fill="#fffb17" stroke="none" /><path d="M 118.56541770881063 90.18545643968196 l 2.928761558897082 -1.548279621198023 a24.312825690296783,24.312825690296783 0 0,0 0.1924077277595099,0.37167048788165374 l -2.954978719816708 1.4976364110560245" fill="#ff0701" stroke="none" /><path d="M 118.73160827565052 90.50648371742162 l 20.70219490642487 -10.492245061772762 a44.20922403657431,44.20922403657431 0 0,0 0.3381794845988179,0.6817492049593497 l -20.8797344039771 10.134336268314463" fill="#e8ff1a" stroke="none" /><path d="M 118.89224826269711 90.83032412892265 l 5.608580618915971 -2.722220545545788 a27.23431321457877,27.23431321457877 0 0,0 0.20106938620321999,0.42350340643055967 l -5.654608198960947 2.6252747234746883" fill="#ff3204" stroke="none" /><path d="M 119.196687751892 91.48605970444005 l 21.617936837488546 -9.587790660887489 a44.64869812202451,44.64869812202451 0 0,0 0.30554441493164647,0.7052386361985749 l -21.779771962262874 9.214252880102311" fill="#e3ff1b" stroke="none" /><path d="M 119.34039704204932 91.81776055985345 l 5.8075859482952845 -2.4569846572884733 a27.305935945836097,27.305935945836097 0 0,0 0.17941080856190525,0.434457503670337 l -5.849018443743388 2.356652583164833" fill="#ff3304" stroke="none" /><path d="M 119.47837535516314 92.15188598940014 l 2.800573559373778 -1.1283908533578397 a24.019350622138003,24.019350622138003 0 0,0 0.15121490856664932,0.3848254485035901 l -2.8195820178221274 1.0800163999584653" fill="#ff0200" stroke="none" /><path d="M 119.61058180528143 92.48833698450437 l 21.264037790992326 -8.145004968270818 a43.77060405676376,43.77060405676376 0 0,0 0.263447786251766,0.7059090891559947 l -21.401090165745718 7.7777727420854905" fill="#eeff19" stroke="none" /><path d="M 119.7369772167798 92.82701384747503 l 5.1523838874535555 -1.872524747395286 a26.48209892771909,26.48209892771909 0 0,0 0.1520159733060182,0.42976962722723194 l -5.183852941569383 1.7835574937414393" fill="#ff2703" stroke="none" /><path d="M 119.85752413597 93.16781622104841 l 2.8434691070367735 -0.978324557282358 a24.007064266365823,24.007064266365823 0 0,0 0.13108166463697812,0.3919174928753709 l -2.8598880654455217 0.9292339614846731" fill="#ff0200" stroke="none" /><path d="M 119.97218684219823 93.5106431181261 l 7.564546213395319 -2.4578700577961894 a28.953834586889805,28.953834586889805 0 0,0 0.14993193977174818,0.4753252216736785 l -7.605733636935274 2.3272946696960917" fill="#ff4b07" stroke="none" /><path d="M 120.08093135843002 93.85539295169968 l 6.290149422570166 -1.9247362478813135 a27.578038414464302,27.578038414464302 0 0,0 0.13499331991589858,0.45513036598231665 l -6.322348639597767 1.816176495152467" fill="#ff3705" stroke="none" /><path d="M 120.18372546131832 94.20196356495316 l 6.4489507139576805 -1.8525445799888403 a27.709760556972306,27.709760556972306 0 0,0 0.12774625744539533,0.4595712565219439 l -6.479883741969439 1.7412620200479445" fill="#ff3905" stroke="none" /><path d="M 120.28053869075195 94.5502522615342 l 6.146284226846228 -1.6516177935893521 a27.364326447730324,27.364326447730324 0 0,0 0.1183229151120192,0.45594645888137947 l -6.173803473828549 1.5455749091591222" fill="#ff3404" stroke="none" /><path d="M 120.37134235888165 94.90015583598534 l 5.966686463386932 -1.4937243998328027 a27.15081782651874,27.15081782651874 0 0,0 0.10959518084679135,0.4543427788935119 l -5.991514444494542 1.3907963892798847" fill="#ff3104" stroke="none" /><path d="M 120.45610955862082 95.25157060432595 l 19.213201885408072 -4.459916112408758 a40.72404569096238,40.72404569096238 0 0,0 0.15262909427924876,0.684206302096012 l -19.287125366689356 4.128531640762782" fill="#ffea16" stroke="none" /><path d="M 120.53481517161879 95.60439243477599 l 6.013265149063371 -1.287177584020943 a27.1494864733363,27.1494864733363 0 0,0 0.09388642015428332,0.4578235277557402 l -6.034530865132651 1.183478400101791" fill="#ff3104" stroke="none" /><path d="M 120.67395015179393 96.31383870115 l 16.38548122430077 -2.92152812155299 a37.643897425691435,37.643897425691435 0 0,0 0.10824975669815116,0.6388961916998701 l -16.433342842519142 2.639046141537282" fill="#ffc212" stroke="none" /><path d="M 120.73433829027371 96.67025291283417 l 6.633319133241498 -1.065251022383154 a27.718309494516912,27.718309494516912 0 0,0 0.0715978539953829,0.471740400777682 l -6.650672880676181 0.9509115092133897" fill="#ff3905" stroke="none" /><path d="M 120.78858239683441 97.02765380044208 l 25.15102581619273 -3.5960872450411587 a46.406808990519465,46.406808990519465 0 0,0 0.10625833558204542,0.7917480221243692 l -25.209200150832608 3.162620880852125" fill="#ceff1d" stroke="none" /><path d="M 120.83666639777658 97.38593545837742 l 5.963234488907965 -0.7481177426970046 a27.009978845773045,27.009978845773045 0 0,0 0.053903746609851394,0.4618143824899085 l -5.975228588521405 0.6453596218822434" fill="#ff2f04" stroke="none" /><path d="M 120.87857604477298 97.74499172005257 l 25.192906392776354 -2.720981181371026 a46.339421285904834,46.339421285904834 0 0,0 0.07882749155022074,0.7937820823588441 l -25.236011010008802 2.286923568307747" fill="#ceff1d" stroke="none" /><path d="M 120.91429891909075 98.10471618934814 l 10.06536282252651 -0.9121376374925122 a31.106607928421347,31.106607928421347 0 0,0 0.0437351740814875,0.5336799009278423 l -10.07957248042749 0.7387438193569011" fill="#ff6909" stroke="none" /><path d="M 120.94382443527127 98.46500227214037 l 21.101190828492435 -1.5465312974224663 a42.157788481652815,42.157788481652815 0 0,0 0.04681403390252394,0.7241923840901928 l -21.124685453399376 1.1830798490792382" fill="#fffc17" stroke="none" /><path d="M 120.98425023603335 99.18683210126433 l 41.44935646056107 -1.6062182693143217 a62.48046634409182,62.48046634409182 0 0,0 0.032395543243250335,1.075050366329905 l -41.47086369825996 0.8924977555594176" fill="#31ff44" stroke="none" /><line stroke="#e1ed5e" stroke-width="0.3" x1="184.98032266829074" x2="189.97916517819016" y1="98.17113171792111" y2="98.06355123074" /><path d="M 185.9800911702706 98.14961562048488 a86.0,86.0 0 0,1 -9.607161424134198,41.387399972396054" fill="none" id="id64" stroke="none" /><text fill="#e1ed5e" style="font-size:6.75px; font-family:Arial;" text-anchor="middle"><textPath startOffset="21.466115282336823" xlink:href="#id64">April</textPath></text><path d="M 120.99513854157772 99.54816195383933 l 21.63178011685282 -0.4655392601301437 a42.63678899066568,42.63678899066568 0 0,0 0.009475504321090508,0.7338882520405944 l -21.636588628291626 0.09311475002908655" fill="#fcff18" stroke="none" /><path d="M 120.99980553446 99.90962569577887 l 6.182022732602829 -0.026604817945641828 a27.18207998029434,27.18207998029434 0 0,0 -0.0020136778810614184,0.46790782264694175 l -6.181564757432264 -0.07981248290498462" fill="#ff3104" stroke="none" /><path d="M 120.99824983174949 100.27111621757518 l 36.782041172691684 0.47490662113929394 a57.78510689298576,57.78510689298576 0 0,0 -0.021402330435894613,0.9944821965134232 l -36.768416779570785 -1.107978633442832" fill="#4eff2b" stroke="none" /><path d="M 120.9764740272857 100.99374915477107 l 9.23733405383932 0.43761372366014384 a30.24769410141551,30.24769410141551 0 0,0 -0.029115060715588708,0.5198689674683352 l -9.228432642236202 -0.5965544074639024" fill="#ff5d08" stroke="none" /><path d="M 120.92983693683757 101.71520430193887 l 6.2089056931887106 0.5088210571075348 a27.229719799081433,27.229719799081433 0 0,0 -0.0423038381765308,0.4668193291560378 l -6.199227258735105 -0.6156217748121432" fill="#ff3204" stroke="none" /><path d="M 120.89721153311464 102.0752229133903 l 6.141987330867457 0.6099374944150425 a27.17219832147588,27.17219832147588 0 0,0 -0.05022677152365118,0.4650375247244918 l -6.130578257842754 -0.7155713410243257" fill="#ff3104" stroke="none" /><path d="M 120.8583938346157 102.4346265915055 l 6.360130483438806 0.7423650604739958 a27.403308960949808,27.403308960949808 0 0,0 -0.058719406899288756,0.46805144752713485 l -6.346409567292669 -0.8517342622885254" fill="#ff3405" stroke="none" /><path d="M 120.81339534386255 102.79330883721812 l 5.99437779995867 0.8044890420623341 a27.04812101626908,27.04812101626908 0 0,0 -0.06590203714358175,0.4609186942901782 l -5.979641711798487 -0.9075532083329216" fill="#ff2f04" stroke="none" /><path d="M 120.76222939487914 103.15116336523771 l 6.376901795154627 0.967846898251014 a27.449930551835454,27.449930551835454 0 0,0 -0.07492294581598467,0.46654525511567324 l -6.359297094977354 -1.077471383059892" fill="#ff3505" stroke="none" /><path d="M 120.70491114924044 103.5080841355445 l 13.527534510219851 2.2920035186953176 a34.72033053737776,34.72033053737776 0 0,0 -0.10491088075028222,0.5883959336475041 l -13.48607718713038 -2.52451820307604" fill="#ff9b0e" stroke="none" /><path d="M 120.64145759157962 103.86396538481128 l 21.491650852357264 4.023116806917476 a42.864961129664295,42.864961129664295 0 0,0 -0.14200562946601417,0.7240836452625964 l -21.419215289915584 -4.392464179248018" fill="#f9ff18" stroke="none" /><path d="M 120.5718875245553 104.21870165774334 l 11.15991577958128 2.288577319091351 a32.392159863380016,32.392159863380016 0 0,0 -0.116713519707341,0.5452467081412891 l -11.118868221149494 -2.4803378466488093" fill="#ff7b0b" stroke="none" /><path d="M 120.49622156327973 104.57218783832717 l 2.949280844616595 0.6579098478192631 a24.02177147850064,24.02177147850064 0 0,0 -0.09350123838086807,0.40280088779001805 l -2.937519040305174 -0.7085793929578461" fill="#ff0200" stroke="none" /><path d="M 120.32669344350535 105.2749913415812 l 6.541536114826968 1.6975976177462513 a27.758219618609864,27.758219618609864 0 0,0 -0.12400247522615288,0.4614593403695752 l -6.511345563259039 -1.8099478912913747" fill="#ff3905" stroke="none" /><path d="M 120.23288151984713 105.62410040840565 l 20.698225209602626 5.7534512195116125 a42.4829869376381,42.4829869376381 0 0,0 -0.20191023349752105,0.7028760109389929 l -20.596122339219004 -6.108884705955187" fill="#fdff18" stroke="none" /><path d="M 120.02730092923936 106.31721596034902 l 6.865703575611052 2.1656503969315826 a28.199161564369028,28.199161564369028 0 0,0 -0.15000308864689674,0.46166203645399756 l -6.8274082359479085 -2.2835113333633754" fill="#ff4006" stroke="none" /><path d="M 119.9155931802556 106.66101706037122 l 5.526271333899949 1.8483299644743776 a26.82717757696281,26.82717757696281 0 0,0 -0.1502439077602375,0.43667912356554905 l -5.493636595196481 -1.943181791129227" fill="#ff2c04" stroke="none" /><path d="M 119.79798401119884 107.00284435728193 l 30.162749205796707 10.669017509885991 a52.994052170333845,52.994052170333845 0 0,0 -0.31159427400283524,0.8573736176401401 l -29.974630670788645 -11.186638924532263" fill="#82ff25" stroke="none" /><path d="M 119.67450827220406 107.3425965602758 l 14.254445457134695 5.319809813496849 a36.214782014284836,36.214782014284836 0 0,0 -0.22298945132005787,0.5821550923951185 l -14.16076172622113 -5.564388472725112" fill="#ffaf10" stroke="none" /><path d="M 119.54520255179757 107.68017299344265 l 5.589130322591878 2.1962160610330277 a27.005143024912513,27.005143024912513 0 0,0 -0.17372972496528064,0.431182929892781 l -5.550497983369204 -2.292098358768622" fill="#ff2e04" stroke="none" /><path d="M 119.41010516605496 108.01547362559984 l 5.637123981647962 2.3278708802750456 a27.098864617263043,27.098864617263043 0 0,0 -0.18175469010209316,0.4296143979338437 l -5.59621831035356 -2.4245598038750527" fill="#ff3004" stroke="none" /><path d="M 119.12269723197855 108.67885076344098 l 25.763675655201812 11.6928638997261 a49.292932853346194,49.292932853346194 0 0,0 -0.35731598050900426,0.769626833694489 l -25.558585057852977 -12.13461080069942" fill="#acff21" stroke="none" /><path d="M 118.97047184881838 109.00673069616215 l 3.2651654948343447 1.5502232377106508 a24.61448444392764,24.61448444392764 0 0,0 -0.1850150575991311,0.38118581830410453 l -3.2379971806204995 -1.606198011980031" fill="#ff0b01" stroke="none" /><path d="M 118.81262510543309 109.33194174019688 l 6.130723757219969 3.0411256593368754 a27.843553102242904,27.843553102242904 0 0,0 -0.2166776421831043,0.427525544240505 l -6.077467445250596 -3.146205415280075" fill="#ff3b05" stroke="none" /><path d="M 118.64920377521936 109.65438752849418 l 12.650018992006363 6.548707765954168 a35.24459735836679,35.24459735836679 0 0,0 -0.2835469677295061,0.5363640054794724 l -12.535419516051963 -6.765486786519774" fill="#ffa20f" stroke="none" /><line stroke="#e1ed5e" stroke-width="0.3" x1="174.80103733775053" x2="179.2010983576182" y1="140.37084112569926" y2="142.7455964860345" /><path d="M 175.68104954172406 140.8457921977663 a86.0,86.0 0 0,1 -30.038265399797805,32.042727171017184" fill="none" id="id65" stroke="none" /><text fill="#e1ed5e" style="font-size:6.75px; font-family:Arial;" text-anchor="middle"><textPath startOffset="22.206326154141568" xlink:href="#id65">May</textPath></text><path d="M 118.48025628344425 109.97397251340804 l 20.121004641694842 10.859500223392859 a43.86446091411243,43.86446091411243 0 0,0 -0.36433317952920996,0.6613705485711981 l -19.93109505271412 -11.204241290361862" fill="#ecff1a" stroke="none" /><path d="M 118.12598468904814 110.60418214915192 l 5.99903258117043 3.509593288350556 a27.950225676881264,27.950225676881264 0 0,0 -0.24651982494804153,0.4131814064067556 l -5.9377318805241615 -3.612336788643416" fill="#ff3c05" stroke="none" /><path d="M 117.75023020441432 111.22182372390056 l 5.429509152805632 3.4325748972504537 a27.42356132263358,27.42356132263358 0 0,0 -0.2556857112310896,0.3968299018656103 l -5.369618578197492 -3.525526399037517" fill="#ff3505" stroke="none" /><path d="M 117.55443506779139 111.5257021239791 l 5.226229279517218 3.431381395910223 a27.252027732366663,27.252027732366663 0 0,0 -0.26083680692698136,0.389915635553134 l -5.166389367179516 -3.5208339456691635" fill="#ff3204" stroke="none" /><path d="M 117.35343817320211 111.8261652097733 l 5.158275464787649 3.515304416060998 a27.24220881645337,27.24220881645337 0 0,0 -0.26741353392015965,0.3852291402557924 l -5.097001023705353 -3.60357481850381" fill="#ff3204" stroke="none" /><path d="M 117.14729908036423 112.12312394758627 l 4.7382718569256115 3.349953642824592 a26.802879423114618,26.802879423114618 0 0,0 -0.2695861788896168,0.3744316238041524 l -4.679905885660392 -3.4310188720798758" fill="#ff2c04" stroke="none" /><path d="M 116.93607887273984 112.41649034213515 l 4.706660621823369 3.4506337974513377 a26.83605413041519,26.83605413041519 0 0,0 -0.2763330643839487,0.3701932974462919 l -4.646566290744329 -3.5311399744069445" fill="#ff2c04" stroke="none" /><path d="M 116.71984013943494 112.70617746262583 l 10.497116165732985 7.977242589360627 a34.18430305804603,34.18430305804603 0 0,0 -0.36006356164720554,0.46543069048557095 l -10.35824578686771 -8.15675127395945" fill="#ff940d" stroke="none" /><path d="M 116.498646956653 112.99209946851258 l 14.948367488503978 11.77130935723239 a40.026755229282514,40.026755229282514 0 0,0 -0.43092059028121354,0.5376396934455627 l -14.74352898616791 -12.026876884256202" fill="#ffe115" stroke="none" /><path d="M 116.27256486870786 113.27417163493432 l 4.200770006409467 3.426733432244186 a26.4211595311713,26.4211595311713 0 0,0 -0.2905119725332517,0.34994038559983365 l -4.141162033982672 -3.4985350749577897" fill="#ff2603" stroke="none" /><path d="M 116.0416608686014 113.55231037782055 l 5.881745507914356 4.969014202427583 a28.699742356975182,28.699742356975182 0 0,0 -0.32206234570523784,0.37463126801003827 l -5.795340652638339 -5.069522569599149" fill="#ff4706" stroke="none" /><path d="M 115.80600337817218 113.82643327865902 l 5.062584118760606 4.42853768032896 a27.726195354405082,27.726195354405082 0 0,0 -0.3173212231596484,0.3565137581190554 l -4.985604045952619 -4.515025608188881" fill="#ff3905" stroke="none" /><path d="M 115.56566222782051 114.09645910891815 l 4.504159353712326 4.079023251331801 a27.07666702794712,27.07666702794712 0 0,0 -0.31583461180949746,0.34277609302580064 l -4.433278333907107 -4.1559505991589365" fill="#ff3004" stroke="none" /><path d="M 115.32070863581623 114.36230785411682 l 4.962038655895809 4.651633841100511 a27.801435511292876,27.801435511292876 0 0,0 -0.33029885820608484,0.34631703231164684 l -4.88123324631076 -4.736357989994666" fill="#ff3a05" stroke="none" /><path d="M 114.81725581225074 114.88116024355365 l 12.563203818328603 12.617386887415465 a38.80540766305535,38.80540766305535 0 0,0 -0.47739899608700326,0.4672353968405324 l -12.344154869865806 -12.83177238717857" fill="#ffd213" stroke="none" /><path d="M 113.20401910651253 116.32954008644616 l 17.464120509546312 21.598049323823318 a48.77537110042386,48.77537110042386 0 0,0 -0.6574049204716964,0.5222822282047526 l -17.089758096357265 -21.895465466033194" fill="#b2ff20" stroke="none" /><path d="M 112.92097659922987 116.55440617244103 l 10.055518476975118 12.883169926354743 a37.34287365159871,37.34287365159871 0 0,0 -0.5101236974352825,0.39114109840299816 l -9.832266051046343 -13.054350366585112" fill="#ffbe11" stroke="none" /><path d="M 112.63410532772338 116.77436683061366 l 3.1619161368562514 4.198092369142935 a26.255634423774936,26.255634423774936 0 0,0 -0.36334676070212923,0.26879524717320274 l -3.089184405735558 -4.2518975650559065" fill="#ff2303" stroke="none" /><path d="M 112.34349029814194 116.9893568818739 l 16.27928008150473 22.406506782469595 a48.69596552144252,48.69596552144252 0 0,0 -0.6823758046177845,0.48685701839347195 l -15.89117694903806 -22.683408062707286" fill="#b2ff20" stroke="none" /><line stroke="#e1ed5e" stroke-width="0.3" x1="143.8653032363475" x2="146.44561519142675" y1="172.8068346515853" y2="177.08958963109032" /><path d="M 144.38136562736335 173.6633856474863 a86.0,86.0 0 0,1 -40.68145358897372,12.25698825130547" fill="none" id="id66" stroke="none" /><text fill="#e1ed5e" style="font-size:6.75px; font-family:Arial;" text-anchor="middle"><textPath startOffset="21.466115282336833" xlink:href="#id66">June</textPath></text><line stroke="#e1ed5e" stroke-width="0.3" x1="102.19456741930631" x2="102.32365962044197" y1="184.97166512339345" y2="189.96999836594603" /><path d="M 102.22038585953345 185.97133177190398 a86.0,86.0 0 0,1 -42.740103519485714,-10.115201625700543" fill="none" id="id67" stroke="none" /><text fill="#e1ed5e" style="font-size:6.75px; font-family:Arial;" text-anchor="middle"><textPath startOffset="22.20632615414155" xlink:href="#id67">July</textPath></text><line stroke="#e1ed5e" stroke-width="0.3" x1="58.666819895761336" x2="56.23545636021788" y1="174.27360380694188" y2="178.64263932499728" /><path d="M 58.180547188652646 175.14741091055294 a86.0,86.0 0 0,1 -31.652253787137756,-30.449443065178592" fill="none" id="id68" stroke="none" /><text fill="#e1ed5e" style="font-size:6.75px; font-family:Arial;" text-anchor="middle"><textPath startOffset="22.20632615414155" xlink:href="#id68">August</textPath></text><line stroke="#e1ed5e" stroke-width="0.3" x1="26.63291911575756" x2="22.317208475507996" y1="142.92168965132927" y2="145.44649492493687" /><path d="M 25.769776987707644 143.4266507060508 a86.0,86.0 0 0,1 -11.730757126820373,-40.83630448921669" fill="none" id="id69" stroke="none" /><text fill="#e1ed5e" style="font-size:6.75px; font-family:Arial;" text-anchor="middle"><textPath startOffset="21.46611528233685" xlink:href="#id69">September</textPath></text><line stroke="#e1ed5e" stroke-width="0.3" x1="15.007084014347285" x2="10.007500721073583" y1="101.09737516637583" y2="101.16192664675087" /><path d="M 14.007167355692545 101.11028546245083 a86.0,86.0 0 0,1 10.666146001902534,-42.60595125391555" fill="none" id="id70" stroke="none" /><text fill="#e1ed5e" style="font-size:6.75px; font-family:Arial;" text-anchor="middle"><textPath startOffset="22.20632615414155" xlink:href="#id70">October</textPath></text><line stroke="#e1ed5e" stroke-width="0.3" x1="26.266209847984243" x2="21.928928074336255" y1="57.711370442889674" y2="55.22380399835377" /><path d="M 25.398753493254645 57.213857153982495 a86.0,86.0 0 0,1 29.58750427330803,-30.492523968695096" fill="none" id="id71" stroke="none" /><text fill="#e1ed5e" style="font-size:6.75px; font-family:Arial;" text-anchor="middle"><textPath startOffset="21.46611528233685" xlink:href="#id71">November</textPath></text><line stroke="#e1ed5e" stroke-width="0.3" x1="56.762969772571076" x2="54.21961505331055" y1="26.818313649435495" y2="22.513508569990535" /><path d="M 56.25429882871897 25.957352633546506 a86.0,86.0 0 0,1 42.265352541879196,-11.944610805530505" fill="none" id="id72" stroke="none" /><text fill="#e1ed5e" style="font-size:6.75px; font-family:Arial;" text-anchor="middle"><textPath startOffset="22.20632615414155" xlink:href="#id72">December</textPath></text></svg>