<?xml version="1.0" encoding="utf-8" ?>
<svg baseProfile="full" height="200mm" version="1.1" viewBox="0,0,200,200" width="200mm" xmlns="http://www.w3.org/2000/svg" xmlns:ev="http://www.w3.org/2001/xml-events" xmlns:xlink="http://www.w3.org/1999/xlink"><defs /><rect fill="#1a1a1a" height="200" width="200" x="0" y="0" /><text alignment-baseline="middle" fill="#e1ed5e" style="dominant-baseline: central; font-size:9.0px; font-family:Arial;" text-anchor="middle" x="100.0" y="100.0">2021</text><line stroke="#e1ed5e" stroke-width="0.3" x1="100.0" x2="100.0" y1="15.0" y2="10.0" /><path d="M 100.0 14.0 a86.0,86.0 0 0,1 42.46469731375804,11.215312516191453" fill="none" id="id13" stroke="none" /><text fill="#e1ed5e" style="font-size:6.75px; font-family:Arial;" text-anchor="middle"><textPath startOffset="22.20632615414155" xlink:href="#id13">January</textPath></text><path d="M 106.40334571778207 80.00007090966166 l 3.085783637253488 -9.638001234544074 a31.119937176337334,31.119937176337334 0 0,0 0.5087623334939717,0.16773094239410302 l -3.251228792989877 9.583456567890734" fill="red" stroke="none" /><path d="M 106.74666289553966 80.11325718540242 l 3.2262855954506877 -9.509932966353816 a31.042297733484887,31.042297733484887 0 0,0 0.5045378500792497,0.17602334903227132 l -3.389505449593211 9.452988764149337" fill="red" stroke="none" /><path d="M 107.08798089147638 80.2323363322302 l 3.38571005973951 -9.442403804727926 a31.03105289688783,31.03105289688783 0 0,0 0.5012515044052592,0.1846151593079165 l -3.5477438899173457 9.382725377613683" fill="red" stroke="none" /><path d="M 107.4271985657038 80.35727306442388 l 3.518088861965585 -9.304296665742006 a30.947204918208136,30.947204918208136 0 0,0 0.49665376445910686,0.1926939446309556 l -3.677725791424359 9.242360017220506" fill="red" stroke="none" /><path d="M 108.09893153111575 80.62456947434976 l 11.064790785898625 -26.470786217833226 a49.69027915733719,49.69027915733719 0 0,0 0.7863279449484054,0.33666458924603004 l -11.518802488637345 26.276402100624406" fill="red" stroke="none" /><path d="M 108.76106565485865 80.91482961587045 l 12.034182425848794 -26.21535222757411 a49.84555839422047,49.84555839422047 0 0,0 0.7766929893584362,0.3646677728197528 l -12.483653626506827 26.004319472114357" fill="red" stroke="none" /><line stroke="#e1ed5e" stroke-width="0.3" x1="143.23703022742887" x2="145.7803849466894" y1="26.81831364943548" y2="22.513508569990506" /><path d="M 143.74570117128098 25.957352633546492 a86.0,86.0 0 0,1 28.547481713284135,27.462654790039103" fill="none" id="id14" stroke="none" /><text fill="#e1ed5e" style="font-size:6.75px; font-family:Arial;" text-anchor="middle"><textPath startOffset="19.985693538727396" xlink:href="#id14">February</textPath></text><path d="M 110.68208982089419 81.91981866633111 l 7.486551279764263 -12.671509692531112 a35.717866963403694,35.717866963403694 0 0,0 0.5266479297934107,0.3172994849966237 l -7.703561275775312 12.540763598075873" fill="red" stroke="none" /><path d="M 111.2981086023043 82.29822771554956 l 33.894325806912875 -53.10531685335132 a84.0,84.0 0 0,0 1.2121318968628794,0.7884043033618879 l -34.803424729560035 52.514013625829904" fill="red" stroke="none" /><path d="M 111.60114157652 82.49532879139004 l 15.96937726164045 -24.0957923431464 a49.90723471327951,49.90723471327951 0 0,0 0.7119987254880674,0.4807447177433686 l -16.38178068153506 23.817335713104363" fill="red" stroke="none" /><path d="M 111.90073688211348 82.69761687909136 l 16.39097474840681 -23.830702891038808 a49.92345853254543,49.92345853254543 0 0,0 0.7038467369415993,0.4930896191093358 l -16.798752624932057 23.545028429165537" fill="red" stroke="none" /><path d="M 112.77801427241765 83.33499621200491 l 17.516003419143207 -22.844258670195334 a49.78663804563206,49.78663804563206 0 0,0 0.6755986205269553,0.527315439489038 l -17.90663459482959 22.53936484148307" fill="red" stroke="none" /><path d="M 113.06298171725822 83.55741782278167 l 18.04011710041976 -22.707381387390633 a50.00122401674233,50.00122401674233 0 0,0 0.6692940066058005,0.5411892070636141 l -18.428314505590052 22.39348608306289" fill="red" stroke="none" /><path d="M 115.4437574822437 85.77008943001954 l 10.771734050445453 -9.925098370502472 a35.64711002613406,35.64711002613406 0 0,0 0.4119046638810145,0.45483541778087305 l -10.940982354942502 9.73821016545205" fill="red" stroke="none" /><path d="M 115.9244219780498 86.31012108654704 l 12.716981739421577 -10.932512363541015 a37.770254951543194,37.770254951543194 0 0,0 0.4195904574324136,0.4966627559569322 l -12.903282810341107 10.711990657954978" fill="red" stroke="none" /><path d="M 116.15771136456269 86.58626213691792 l 21.877789098018162 -18.162406875780512 a49.43432220642443,49.43432220642443 0 0,0 0.537896055588031,0.6593969626053943 l -22.1871836456826 17.783125743567016" fill="red" stroke="none" /><path d="M 116.38621287248628 86.86637796730983 l 22.24459494347795 -17.82914115246704 a49.507898527145045,49.507898527145045 0 0,0 0.5272494992363851,0.6695533210052553 l -22.548198523308297 17.443595437508748" fill="red" stroke="none" /><path d="M 117.2510076193507 88.02491185347247 l 23.47155565268341 -16.29319017642342 a49.57239875967916,49.57239875967916 0 0,0 0.4805584555040145,0.7051602356532862 l -23.74853857385616 15.886751917499728" fill="red" stroke="none" /><path d="M 117.65298651832404 88.62581576622439 l 24.03305579128906 -15.48499479037057 a49.58973302297551,49.58973302297551 0 0,0 0.4561603775985471,0.7215361702092702 l -24.29604376513356 15.069010972447094" fill="red" stroke="none" /><line stroke="#e1ed5e" stroke-width="0.3" x1="172.23445277983987" x2="176.4835382374775" y1="55.19839476539836" y2="52.563006222186495" /><path d="M 173.08426987136738 54.67131705675599 a86.0,86.0 0 0,1 12.851231095245387,41.99856678651699" fill="none" id="id15" stroke="none" /><text fill="#e1ed5e" style="font-size:6.75px; font-family:Arial;" text-anchor="middle"><textPath startOffset="22.20632615414155" xlink:href="#id15">March</textPath></text><line stroke="#e1ed5e" stroke-width="0.3" x1="184.98032266829074" x2="189.97916517819016" y1="98.17113171792111" y2="98.06355123074" /><path d="M 185.9800911702706 98.14961562048488 a86.0,86.0 0 0,1 -9.607161424134198,41.387399972396054" fill="none" id="id16" stroke="none" /><text fill="#e1ed5e" style="font-size:6.75px; font-family:Arial;" text-anchor="middle"><textPath startOffset="21.466115282336823" xlink:href="#id16">April</textPath></text><path d="M 120.70491114924044 103.5080841355445 l 7.486926425659748 1.2685284002684247 a28.593630989554985,28.593630989554985 0 0,0 -0.08639845774893751,0.48456843417315193 l -7.463981525571621 -1.3972155851747952" fill="red" stroke="none" /><path d="M 120.02730092923936 106.31721596034902 l 7.826468844458875 2.4687047981191816 a29.206589910160133,29.206589910160133 0 0,0 -0.1553620197312182,0.4781551304290705 l -7.782814573711409 -2.603058828526047" fill="red" stroke="none" /><path d="M 119.79798401119884 107.00284435728193 l 18.25890909483491 6.458450438820494 a40.36748159684541,40.36748159684541 0 0,0 -0.23735260102516176,0.6530924191353661 l -18.14503223280452 -6.771790654961991" fill="red" stroke="none" /><line stroke="#e1ed5e" stroke-width="0.3" x1="174.80103733775053" x2="179.2010983576182" y1="140.37084112569926" y2="142.7455964860345" /><path d="M 175.68104954172406 140.8457921977663 a86.0,86.0 0 0,1 -30.038265399797805,32.042727171017184" fill="none" id="id17" stroke="none" /><text fill="#e1ed5e" style="font-size:6.75px; font-family:Arial;" text-anchor="middle"><textPath startOffset="22.206326154141568" xlink:href="#id17">May</textPath></text><line stroke="#e1ed5e" stroke-width="0.3" x1="143.8653032363475" x2="146.44561519142675" y1="172.8068346515853" y2="177.08958963109032" /><path d="M 144.38136562736335 173.6633856474863 a86.0,86.0 0 0,1 -40.68145358897372,12.25698825130547" fill="none" id="id18" stroke="none" /><text fill="#e1ed5e" style="font-size:6.75px; font-family:Arial;" text-anchor="middle"><textPath startOffset="21.466115282336833" xlink:href="#id18">June</textPath></text><line stroke="#e1ed5e" stroke-width="0.3" x1="102.19456741930631" x2="102.32365962044197" y1="184.97166512339345" y2="189.96999836594603" /><path d="M 102.22038585953345 185.97133177190398 a86.0,86.0 0 0,1 -42.740103519485714,-10.115201625700543" fill="none" id="id19" stroke="none" /><text fill="#e1ed5e" style="font-size:6.75px; font-family:Arial;" text-anchor="middle"><textPath startOffset="22.20632615414155" xlink:href="#id19">July</textPath></text><line stroke="#e1ed5e" stroke-width="0.3" x1="58.666819895761336" x2="56.23545636021788" y1="174.27360380694188" y2="178.64263932499728" /><path d="M 58.180547188652646 175.14741091055294 a86.0,86.0 0 0,1 -31.652253787137756,-30.449443065178592" fill="none" id="id20" stroke="none" /><text fill="#e1ed5e" style="font-size:6.75px; font-family:Arial;" text-anchor="middle"><textPath startOffset="22.20632615414155" xlink:href="#id20">August</textPath></text><line stroke="#e1ed5e" stroke-width="0.3" x1="26.63291911575756" x2="22.317208475507996" y1="142.92168965132927" y2="145.44649492493687" /><path d="M 25.769776987707644 143.4266507060508 a86.0,86.0 0 0,1 -11.730757126820373,-40.83630448921669" fill="none" id="id21" stroke="none" /><text fill="#e1ed5e" style="font-size:6.75px; font-family:Arial;" text-anchor="middle"><textPath startOffset="21.46611528233685" xlink:href="#id21">September</textPath></text><line stroke="#e1ed5e" stroke-width="0.3" x1="15.007084014347285" x2="10.007500721073583" y1="101.09737516637583" y2="101.16192664675087" /><path d="M 14.007167355692545 101.11028546245083 a86.0,86.0 0 0,1 10.666146001902534,-42.60595125391555" fill="none" id="id22" stroke="none" /><text fill="#e1ed5e" style="font-size:6.75px; font-family:Arial;" text-anchor="middle"><textPath startOffset="22.20632615414155" xlink:href="#id22">October</textPath></text><line stroke="#e1ed5e" stroke-width="0.3" x1="26.266209847984243" x2="21.928928074336255" y1="57.711370442889674" y2="55.22380399835377" /><path d="M 25.398753493254645 57.213857153982495 a86.0,86.0 0 0,1 29.58750427330803,-30.492523968695096" fill="none" id="id23" stroke="none" /><text fill="#e1ed5e" style="font-size:6.75px; font-family:Arial;" text-anchor="middle"><textPath startOffset="21.46611528233685" xlink:href="#id23">November</textPath></text><line stroke="#e1ed5e" stroke-width="0.3" x1="56.762969772571076" x2="54.21961505331055" y1="26.818313649435495" y2="22.513508569990535" /><path d="M 56.25429882871897 25.957352633546506 a86.0,86.0 0 0,1 42.265352541879196,-11.944610805530505" fill="none" id="id24" stroke="none" /><text fill="#e1ed5e" style="font-size:6.75px; font-family:Arial;" text-anchor="middle"><textPath startOffset="22.20632615414155" xlink:href="#id24">December</textPath></text><path d="M 99.27714615592234 79.0124445844662 l -0.20660844902430045 -5.99873170592024 a27.002288657738895,27.002288657738895 0 0,0 0.46466228141363136,-0.012000855841651512 l 0.10331953241579009 6.001399353904251" fill="red" stroke="none" /></svg>